<?xml version="1.0" encoding="utf-8" standalone="no"?>
<!DOCTYPE svg PUBLIC "-//W3C//DTD SVG 1.1//EN"
  "http://www.w3.org/Graphics/SVG/1.1/DTD/svg11.dtd">
<svg height="372.35625pt" version="1.1" viewBox="0 0 482.542187 372.35625" width="482.542187pt" xmlns="http://www.w3.org/2000/svg" xmlns:xlink="http://www.w3.org/1999/xlink">
 <metadata>
  <rdf:RDF xmlns:cc="http://creativecommons.org/ns#" xmlns:dc="http://purl.org/dc/elements/1.1/" xmlns:rdf="http://www.w3.org/1999/02/22-rdf-syntax-ns#">
   <cc:Work>
    <dc:type rdf:resource="http://purl.org/dc/dcmitype/StillImage"/>
    <dc:date>2022-12-11T01:17:57.320145</dc:date>
    <dc:format>image/svg+xml</dc:format>
    <dc:creator>
     <cc:Agent>
      <dc:title>Matplotlib v3.4.2, https://matplotlib.org/</dc:title>
     </cc:Agent>
    </dc:creator>
   </cc:Work>
  </rdf:RDF>
 </metadata>
 <defs>
  <style type="text/css">*{stroke-linecap:butt;stroke-linejoin:round;}</style>
 </defs>
 <g id="figure_1">
  <g id="patch_1">
   <path d="M 0 372.35625 
L 482.542187 372.35625 
L 482.542187 0 
L 0 0 
z
" style="fill:none;"/>
  </g>
  <g id="axes_1">
   <g id="patch_2">
    <path d="M 28.942188 348.478125 
L 475.342187 348.478125 
L 475.342187 22.318125 
L 28.942188 22.318125 
z
" style="fill:#ffffff;"/>
   </g>
   <g id="matplotlib.axis_1">
    <g id="xtick_1">
     <g id="line2d_1">
      <defs>
       <path d="M 0 0 
L 0 3.5 
" id="mfe034a6f43" style="stroke:#000000;stroke-width:0.8;"/>
      </defs>
      <g>
       <use style="stroke:#000000;stroke-width:0.8;" x="49.233097" xlink:href="#mfe034a6f43" y="348.478125"/>
      </g>
     </g>
     <g id="text_1">
      <!-- 1 -->
      <g transform="translate(46.051847 363.076563)scale(0.1 -0.1)">
       <defs>
        <path d="M 794 531 
L 1825 531 
L 1825 4091 
L 703 3866 
L 703 4441 
L 1819 4666 
L 2450 4666 
L 2450 531 
L 3481 531 
L 3481 0 
L 794 0 
L 794 531 
z
" id="DejaVuSans-31" transform="scale(0.015625)"/>
       </defs>
       <use xlink:href="#DejaVuSans-31"/>
      </g>
     </g>
    </g>
    <g id="xtick_2">
     <g id="line2d_2">
      <g>
       <use style="stroke:#000000;stroke-width:0.8;" x="116.86946" xlink:href="#mfe034a6f43" y="348.478125"/>
      </g>
     </g>
     <g id="text_2">
      <!-- 2 -->
      <g transform="translate(113.68821 363.076563)scale(0.1 -0.1)">
       <defs>
        <path d="M 1228 531 
L 3431 531 
L 3431 0 
L 469 0 
L 469 531 
Q 828 903 1448 1529 
Q 2069 2156 2228 2338 
Q 2531 2678 2651 2914 
Q 2772 3150 2772 3378 
Q 2772 3750 2511 3984 
Q 2250 4219 1831 4219 
Q 1534 4219 1204 4116 
Q 875 4013 500 3803 
L 500 4441 
Q 881 4594 1212 4672 
Q 1544 4750 1819 4750 
Q 2544 4750 2975 4387 
Q 3406 4025 3406 3419 
Q 3406 3131 3298 2873 
Q 3191 2616 2906 2266 
Q 2828 2175 2409 1742 
Q 1991 1309 1228 531 
z
" id="DejaVuSans-32" transform="scale(0.015625)"/>
       </defs>
       <use xlink:href="#DejaVuSans-32"/>
      </g>
     </g>
    </g>
    <g id="xtick_3">
     <g id="line2d_3">
      <g>
       <use style="stroke:#000000;stroke-width:0.8;" x="184.505824" xlink:href="#mfe034a6f43" y="348.478125"/>
      </g>
     </g>
     <g id="text_3">
      <!-- 3 -->
      <g transform="translate(181.324574 363.076563)scale(0.1 -0.1)">
       <defs>
        <path d="M 2597 2516 
Q 3050 2419 3304 2112 
Q 3559 1806 3559 1356 
Q 3559 666 3084 287 
Q 2609 -91 1734 -91 
Q 1441 -91 1130 -33 
Q 819 25 488 141 
L 488 750 
Q 750 597 1062 519 
Q 1375 441 1716 441 
Q 2309 441 2620 675 
Q 2931 909 2931 1356 
Q 2931 1769 2642 2001 
Q 2353 2234 1838 2234 
L 1294 2234 
L 1294 2753 
L 1863 2753 
Q 2328 2753 2575 2939 
Q 2822 3125 2822 3475 
Q 2822 3834 2567 4026 
Q 2313 4219 1838 4219 
Q 1578 4219 1281 4162 
Q 984 4106 628 3988 
L 628 4550 
Q 988 4650 1302 4700 
Q 1616 4750 1894 4750 
Q 2613 4750 3031 4423 
Q 3450 4097 3450 3541 
Q 3450 3153 3228 2886 
Q 3006 2619 2597 2516 
z
" id="DejaVuSans-33" transform="scale(0.015625)"/>
       </defs>
       <use xlink:href="#DejaVuSans-33"/>
      </g>
     </g>
    </g>
    <g id="xtick_4">
     <g id="line2d_4">
      <g>
       <use style="stroke:#000000;stroke-width:0.8;" x="252.142188" xlink:href="#mfe034a6f43" y="348.478125"/>
      </g>
     </g>
     <g id="text_4">
      <!-- 4 -->
      <g transform="translate(248.960938 363.076563)scale(0.1 -0.1)">
       <defs>
        <path d="M 2419 4116 
L 825 1625 
L 2419 1625 
L 2419 4116 
z
M 2253 4666 
L 3047 4666 
L 3047 1625 
L 3713 1625 
L 3713 1100 
L 3047 1100 
L 3047 0 
L 2419 0 
L 2419 1100 
L 313 1100 
L 313 1709 
L 2253 4666 
z
" id="DejaVuSans-34" transform="scale(0.015625)"/>
       </defs>
       <use xlink:href="#DejaVuSans-34"/>
      </g>
     </g>
    </g>
    <g id="xtick_5">
     <g id="line2d_5">
      <g>
       <use style="stroke:#000000;stroke-width:0.8;" x="319.778551" xlink:href="#mfe034a6f43" y="348.478125"/>
      </g>
     </g>
     <g id="text_5">
      <!-- 5 -->
      <g transform="translate(316.597301 363.076563)scale(0.1 -0.1)">
       <defs>
        <path d="M 691 4666 
L 3169 4666 
L 3169 4134 
L 1269 4134 
L 1269 2991 
Q 1406 3038 1543 3061 
Q 1681 3084 1819 3084 
Q 2600 3084 3056 2656 
Q 3513 2228 3513 1497 
Q 3513 744 3044 326 
Q 2575 -91 1722 -91 
Q 1428 -91 1123 -41 
Q 819 9 494 109 
L 494 744 
Q 775 591 1075 516 
Q 1375 441 1709 441 
Q 2250 441 2565 725 
Q 2881 1009 2881 1497 
Q 2881 1984 2565 2268 
Q 2250 2553 1709 2553 
Q 1456 2553 1204 2497 
Q 953 2441 691 2322 
L 691 4666 
z
" id="DejaVuSans-35" transform="scale(0.015625)"/>
       </defs>
       <use xlink:href="#DejaVuSans-35"/>
      </g>
     </g>
    </g>
    <g id="xtick_6">
     <g id="line2d_6">
      <g>
       <use style="stroke:#000000;stroke-width:0.8;" x="387.414915" xlink:href="#mfe034a6f43" y="348.478125"/>
      </g>
     </g>
     <g id="text_6">
      <!-- 6 -->
      <g transform="translate(384.233665 363.076563)scale(0.1 -0.1)">
       <defs>
        <path d="M 2113 2584 
Q 1688 2584 1439 2293 
Q 1191 2003 1191 1497 
Q 1191 994 1439 701 
Q 1688 409 2113 409 
Q 2538 409 2786 701 
Q 3034 994 3034 1497 
Q 3034 2003 2786 2293 
Q 2538 2584 2113 2584 
z
M 3366 4563 
L 3366 3988 
Q 3128 4100 2886 4159 
Q 2644 4219 2406 4219 
Q 1781 4219 1451 3797 
Q 1122 3375 1075 2522 
Q 1259 2794 1537 2939 
Q 1816 3084 2150 3084 
Q 2853 3084 3261 2657 
Q 3669 2231 3669 1497 
Q 3669 778 3244 343 
Q 2819 -91 2113 -91 
Q 1303 -91 875 529 
Q 447 1150 447 2328 
Q 447 3434 972 4092 
Q 1497 4750 2381 4750 
Q 2619 4750 2861 4703 
Q 3103 4656 3366 4563 
z
" id="DejaVuSans-36" transform="scale(0.015625)"/>
       </defs>
       <use xlink:href="#DejaVuSans-36"/>
      </g>
     </g>
    </g>
    <g id="xtick_7">
     <g id="line2d_7">
      <g>
       <use style="stroke:#000000;stroke-width:0.8;" x="455.051278" xlink:href="#mfe034a6f43" y="348.478125"/>
      </g>
     </g>
     <g id="text_7">
      <!-- 7 -->
      <g transform="translate(451.870028 363.076563)scale(0.1 -0.1)">
       <defs>
        <path d="M 525 4666 
L 3525 4666 
L 3525 4397 
L 1831 0 
L 1172 0 
L 2766 4134 
L 525 4134 
L 525 4666 
z
" id="DejaVuSans-37" transform="scale(0.015625)"/>
       </defs>
       <use xlink:href="#DejaVuSans-37"/>
      </g>
     </g>
    </g>
   </g>
   <g id="matplotlib.axis_2">
    <g id="ytick_1">
     <g id="line2d_8">
      <defs>
       <path d="M 0 0 
L -3.5 0 
" id="mcf2ec81bb3" style="stroke:#000000;stroke-width:0.8;"/>
      </defs>
      <g>
       <use style="stroke:#000000;stroke-width:0.8;" x="28.942188" xlink:href="#mcf2ec81bb3" y="313.82956"/>
      </g>
     </g>
     <g id="text_8">
      <!-- −2 -->
      <g transform="translate(7.2 317.628779)scale(0.1 -0.1)">
       <defs>
        <path d="M 678 2272 
L 4684 2272 
L 4684 1741 
L 678 1741 
L 678 2272 
z
" id="DejaVuSans-2212" transform="scale(0.015625)"/>
       </defs>
       <use xlink:href="#DejaVuSans-2212"/>
       <use x="83.789062" xlink:href="#DejaVuSans-32"/>
      </g>
     </g>
    </g>
    <g id="ytick_2">
     <g id="line2d_9">
      <g>
       <use style="stroke:#000000;stroke-width:0.8;" x="28.942188" xlink:href="#mcf2ec81bb3" y="275.94023"/>
      </g>
     </g>
     <g id="text_9">
      <!-- −1 -->
      <g transform="translate(7.2 279.739449)scale(0.1 -0.1)">
       <use xlink:href="#DejaVuSans-2212"/>
       <use x="83.789062" xlink:href="#DejaVuSans-31"/>
      </g>
     </g>
    </g>
    <g id="ytick_3">
     <g id="line2d_10">
      <g>
       <use style="stroke:#000000;stroke-width:0.8;" x="28.942188" xlink:href="#mcf2ec81bb3" y="238.0509"/>
      </g>
     </g>
     <g id="text_10">
      <!-- 0 -->
      <g transform="translate(15.579688 241.850119)scale(0.1 -0.1)">
       <defs>
        <path d="M 2034 4250 
Q 1547 4250 1301 3770 
Q 1056 3291 1056 2328 
Q 1056 1369 1301 889 
Q 1547 409 2034 409 
Q 2525 409 2770 889 
Q 3016 1369 3016 2328 
Q 3016 3291 2770 3770 
Q 2525 4250 2034 4250 
z
M 2034 4750 
Q 2819 4750 3233 4129 
Q 3647 3509 3647 2328 
Q 3647 1150 3233 529 
Q 2819 -91 2034 -91 
Q 1250 -91 836 529 
Q 422 1150 422 2328 
Q 422 3509 836 4129 
Q 1250 4750 2034 4750 
z
" id="DejaVuSans-30" transform="scale(0.015625)"/>
       </defs>
       <use xlink:href="#DejaVuSans-30"/>
      </g>
     </g>
    </g>
    <g id="ytick_4">
     <g id="line2d_11">
      <g>
       <use style="stroke:#000000;stroke-width:0.8;" x="28.942188" xlink:href="#mcf2ec81bb3" y="200.161571"/>
      </g>
     </g>
     <g id="text_11">
      <!-- 1 -->
      <g transform="translate(15.579688 203.96079)scale(0.1 -0.1)">
       <use xlink:href="#DejaVuSans-31"/>
      </g>
     </g>
    </g>
    <g id="ytick_5">
     <g id="line2d_12">
      <g>
       <use style="stroke:#000000;stroke-width:0.8;" x="28.942188" xlink:href="#mcf2ec81bb3" y="162.272241"/>
      </g>
     </g>
     <g id="text_12">
      <!-- 2 -->
      <g transform="translate(15.579688 166.07146)scale(0.1 -0.1)">
       <use xlink:href="#DejaVuSans-32"/>
      </g>
     </g>
    </g>
    <g id="ytick_6">
     <g id="line2d_13">
      <g>
       <use style="stroke:#000000;stroke-width:0.8;" x="28.942188" xlink:href="#mcf2ec81bb3" y="124.382911"/>
      </g>
     </g>
     <g id="text_13">
      <!-- 3 -->
      <g transform="translate(15.579688 128.18213)scale(0.1 -0.1)">
       <use xlink:href="#DejaVuSans-33"/>
      </g>
     </g>
    </g>
    <g id="ytick_7">
     <g id="line2d_14">
      <g>
       <use style="stroke:#000000;stroke-width:0.8;" x="28.942188" xlink:href="#mcf2ec81bb3" y="86.493582"/>
      </g>
     </g>
     <g id="text_14">
      <!-- 4 -->
      <g transform="translate(15.579688 90.2928)scale(0.1 -0.1)">
       <use xlink:href="#DejaVuSans-34"/>
      </g>
     </g>
    </g>
    <g id="ytick_8">
     <g id="line2d_15">
      <g>
       <use style="stroke:#000000;stroke-width:0.8;" x="28.942188" xlink:href="#mcf2ec81bb3" y="48.604252"/>
      </g>
     </g>
     <g id="text_15">
      <!-- 5 -->
      <g transform="translate(15.579688 52.403471)scale(0.1 -0.1)">
       <use xlink:href="#DejaVuSans-35"/>
      </g>
     </g>
    </g>
   </g>
   <g id="line2d_16">
    <path clip-path="url(#p781682b6cb)" d="M 49.233097 73.538233 
L 116.86946 74.200538 
L 184.505824 71.288172 
L 252.142188 74.505512 
L 319.778551 320.171926 
L 387.414915 333.582057 
L 455.051278 333.65267 
" style="fill:none;stroke:#f28e2c;stroke-linecap:square;stroke-width:3;"/>
    <defs>
     <path d="M 0 6 
C 1.591219 6 3.117479 5.367802 4.242641 4.242641 
C 5.367802 3.117479 6 1.591219 6 0 
C 6 -1.591219 5.367802 -3.117479 4.242641 -4.242641 
C 3.117479 -5.367802 1.591219 -6 0 -6 
C -1.591219 -6 -3.117479 -5.367802 -4.242641 -4.242641 
C -5.367802 -3.117479 -6 -1.591219 -6 0 
C -6 1.591219 -5.367802 3.117479 -4.242641 4.242641 
C -3.117479 5.367802 -1.591219 6 0 6 
z
" id="md6d40dbc80" style="stroke:#f28e2c;"/>
    </defs>
    <g clip-path="url(#p781682b6cb)">
     <use style="fill:#f28e2c;stroke:#f28e2c;" x="49.233097" xlink:href="#md6d40dbc80" y="73.538233"/>
     <use style="fill:#f28e2c;stroke:#f28e2c;" x="116.86946" xlink:href="#md6d40dbc80" y="74.200538"/>
     <use style="fill:#f28e2c;stroke:#f28e2c;" x="184.505824" xlink:href="#md6d40dbc80" y="71.288172"/>
     <use style="fill:#f28e2c;stroke:#f28e2c;" x="252.142188" xlink:href="#md6d40dbc80" y="74.505512"/>
     <use style="fill:#f28e2c;stroke:#f28e2c;" x="319.778551" xlink:href="#md6d40dbc80" y="320.171926"/>
     <use style="fill:#f28e2c;stroke:#f28e2c;" x="387.414915" xlink:href="#md6d40dbc80" y="333.582057"/>
     <use style="fill:#f28e2c;stroke:#f28e2c;" x="455.051278" xlink:href="#md6d40dbc80" y="333.65267"/>
    </g>
   </g>
   <g id="line2d_17">
    <path clip-path="url(#p781682b6cb)" d="M 49.233097 73.577587 
L 116.86946 69.548253 
L 184.505824 83.604263 
L 252.142188 273.279484 
L 319.778551 313.115494 
L 387.414915 315.383532 
L 455.051278 315.263872 
" style="fill:none;stroke:#e15659;stroke-linecap:square;stroke-width:3;"/>
    <defs>
     <path d="M -6 0 
L 6 0 
M 0 6 
L 0 -6 
" id="m1ee4c6851f" style="stroke:#e15659;"/>
    </defs>
    <g clip-path="url(#p781682b6cb)">
     <use style="fill:#e15659;stroke:#e15659;" x="49.233097" xlink:href="#m1ee4c6851f" y="73.577587"/>
     <use style="fill:#e15659;stroke:#e15659;" x="116.86946" xlink:href="#m1ee4c6851f" y="69.548253"/>
     <use style="fill:#e15659;stroke:#e15659;" x="184.505824" xlink:href="#m1ee4c6851f" y="83.604263"/>
     <use style="fill:#e15659;stroke:#e15659;" x="252.142188" xlink:href="#m1ee4c6851f" y="273.279484"/>
     <use style="fill:#e15659;stroke:#e15659;" x="319.778551" xlink:href="#m1ee4c6851f" y="313.115494"/>
     <use style="fill:#e15659;stroke:#e15659;" x="387.414915" xlink:href="#m1ee4c6851f" y="315.383532"/>
     <use style="fill:#e15659;stroke:#e15659;" x="455.051278" xlink:href="#m1ee4c6851f" y="315.263872"/>
    </g>
   </g>
   <g id="line2d_18">
    <path clip-path="url(#p781682b6cb)" d="M 49.233097 91.800477 
L 116.86946 90.646809 
L 184.505824 86.373767 
L 252.142188 249.021544 
L 319.778551 313.322473 
L 387.414915 316.987599 
L 455.051278 316.952461 
" style="fill:none;stroke:#59a14f;stroke-linecap:square;stroke-width:3;"/>
    <defs>
     <path d="M 0 -6 
L -6 6 
L 6 6 
z
" id="m3c55f1d199" style="stroke:#59a14f;stroke-linejoin:miter;"/>
    </defs>
    <g clip-path="url(#p781682b6cb)">
     <use style="fill:#59a14f;stroke:#59a14f;stroke-linejoin:miter;" x="49.233097" xlink:href="#m3c55f1d199" y="91.800477"/>
     <use style="fill:#59a14f;stroke:#59a14f;stroke-linejoin:miter;" x="116.86946" xlink:href="#m3c55f1d199" y="90.646809"/>
     <use style="fill:#59a14f;stroke:#59a14f;stroke-linejoin:miter;" x="184.505824" xlink:href="#m3c55f1d199" y="86.373767"/>
     <use style="fill:#59a14f;stroke:#59a14f;stroke-linejoin:miter;" x="252.142188" xlink:href="#m3c55f1d199" y="249.021544"/>
     <use style="fill:#59a14f;stroke:#59a14f;stroke-linejoin:miter;" x="319.778551" xlink:href="#m3c55f1d199" y="313.322473"/>
     <use style="fill:#59a14f;stroke:#59a14f;stroke-linejoin:miter;" x="387.414915" xlink:href="#m3c55f1d199" y="316.987599"/>
     <use style="fill:#59a14f;stroke:#59a14f;stroke-linejoin:miter;" x="455.051278" xlink:href="#m3c55f1d199" y="316.952461"/>
    </g>
   </g>
   <g id="line2d_19">
    <path clip-path="url(#p781682b6cb)" d="M 49.233097 55.899394 
L 116.86946 41.898492 
L 184.505824 37.14358 
L 252.142188 86.347539 
L 319.778551 304.409433 
L 387.414915 310.583325 
L 455.051278 307.22653 
" style="fill:none;stroke:#76b7af;stroke-linecap:square;stroke-width:3;"/>
    <defs>
     <path d="M -6 6 
L 6 -6 
M -6 -6 
L 6 6 
" id="m38bf5d857f" style="stroke:#76b7af;"/>
    </defs>
    <g clip-path="url(#p781682b6cb)">
     <use style="fill:#76b7af;stroke:#76b7af;" x="49.233097" xlink:href="#m38bf5d857f" y="55.899394"/>
     <use style="fill:#76b7af;stroke:#76b7af;" x="116.86946" xlink:href="#m38bf5d857f" y="41.898492"/>
     <use style="fill:#76b7af;stroke:#76b7af;" x="184.505824" xlink:href="#m38bf5d857f" y="37.14358"/>
     <use style="fill:#76b7af;stroke:#76b7af;" x="252.142188" xlink:href="#m38bf5d857f" y="86.347539"/>
     <use style="fill:#76b7af;stroke:#76b7af;" x="319.778551" xlink:href="#m38bf5d857f" y="304.409433"/>
     <use style="fill:#76b7af;stroke:#76b7af;" x="387.414915" xlink:href="#m38bf5d857f" y="310.583325"/>
     <use style="fill:#76b7af;stroke:#76b7af;" x="455.051278" xlink:href="#m38bf5d857f" y="307.22653"/>
    </g>
   </g>
   <g id="line2d_20">
    <path clip-path="url(#p781682b6cb)" d="M 49.233097 74.480193 
L 116.86946 74.343664 
L 184.505824 74.131568 
L 252.142188 73.381947 
L 319.778551 71.085861 
L 387.414915 330.897648 
L 455.051278 332.938729 
" style="fill:none;stroke:#4e79a6;stroke-linecap:square;stroke-width:3;"/>
    <defs>
     <path d="M 0 -6 
L -1.347084 -1.854102 
L -5.706339 -1.854102 
L -2.179628 0.708204 
L -3.526712 4.854102 
L -0 2.291796 
L 3.526712 4.854102 
L 2.179628 0.708204 
L 5.706339 -1.854102 
L 1.347084 -1.854102 
z
" id="mb7c5aa595b" style="stroke:#4e79a6;stroke-linejoin:bevel;"/>
    </defs>
    <g clip-path="url(#p781682b6cb)">
     <use style="fill:#4e79a6;stroke:#4e79a6;stroke-linejoin:bevel;" x="49.233097" xlink:href="#mb7c5aa595b" y="74.480193"/>
     <use style="fill:#4e79a6;stroke:#4e79a6;stroke-linejoin:bevel;" x="116.86946" xlink:href="#mb7c5aa595b" y="74.343664"/>
     <use style="fill:#4e79a6;stroke:#4e79a6;stroke-linejoin:bevel;" x="184.505824" xlink:href="#mb7c5aa595b" y="74.131568"/>
     <use style="fill:#4e79a6;stroke:#4e79a6;stroke-linejoin:bevel;" x="252.142188" xlink:href="#mb7c5aa595b" y="73.381947"/>
     <use style="fill:#4e79a6;stroke:#4e79a6;stroke-linejoin:bevel;" x="319.778551" xlink:href="#mb7c5aa595b" y="71.085861"/>
     <use style="fill:#4e79a6;stroke:#4e79a6;stroke-linejoin:bevel;" x="387.414915" xlink:href="#mb7c5aa595b" y="330.897648"/>
     <use style="fill:#4e79a6;stroke:#4e79a6;stroke-linejoin:bevel;" x="455.051278" xlink:href="#mb7c5aa595b" y="332.938729"/>
    </g>
   </g>
   <g id="patch_3">
    <path d="M 28.942188 348.478125 
L 28.942188 22.318125 
" style="fill:none;stroke:#000000;stroke-linecap:square;stroke-linejoin:miter;stroke-width:0.8;"/>
   </g>
   <g id="patch_4">
    <path d="M 475.342187 348.478125 
L 475.342187 22.318125 
" style="fill:none;stroke:#000000;stroke-linecap:square;stroke-linejoin:miter;stroke-width:0.8;"/>
   </g>
   <g id="patch_5">
    <path d="M 28.942188 348.478125 
L 475.342188 348.478125 
" style="fill:none;stroke:#000000;stroke-linecap:square;stroke-linejoin:miter;stroke-width:0.8;"/>
   </g>
   <g id="patch_6">
    <path d="M 28.942188 22.318125 
L 475.342188 22.318125 
" style="fill:none;stroke:#000000;stroke-linecap:square;stroke-linejoin:miter;stroke-width:0.8;"/>
   </g>
   <g id="text_16">
    <!-- bgColorL -->
    <g transform="translate(225.515312 16.318125)scale(0.12 -0.12)">
     <defs>
      <path d="M 3116 1747 
Q 3116 2381 2855 2742 
Q 2594 3103 2138 3103 
Q 1681 3103 1420 2742 
Q 1159 2381 1159 1747 
Q 1159 1113 1420 752 
Q 1681 391 2138 391 
Q 2594 391 2855 752 
Q 3116 1113 3116 1747 
z
M 1159 2969 
Q 1341 3281 1617 3432 
Q 1894 3584 2278 3584 
Q 2916 3584 3314 3078 
Q 3713 2572 3713 1747 
Q 3713 922 3314 415 
Q 2916 -91 2278 -91 
Q 1894 -91 1617 61 
Q 1341 213 1159 525 
L 1159 0 
L 581 0 
L 581 4863 
L 1159 4863 
L 1159 2969 
z
" id="DejaVuSans-62" transform="scale(0.015625)"/>
      <path d="M 2906 1791 
Q 2906 2416 2648 2759 
Q 2391 3103 1925 3103 
Q 1463 3103 1205 2759 
Q 947 2416 947 1791 
Q 947 1169 1205 825 
Q 1463 481 1925 481 
Q 2391 481 2648 825 
Q 2906 1169 2906 1791 
z
M 3481 434 
Q 3481 -459 3084 -895 
Q 2688 -1331 1869 -1331 
Q 1566 -1331 1297 -1286 
Q 1028 -1241 775 -1147 
L 775 -588 
Q 1028 -725 1275 -790 
Q 1522 -856 1778 -856 
Q 2344 -856 2625 -561 
Q 2906 -266 2906 331 
L 2906 616 
Q 2728 306 2450 153 
Q 2172 0 1784 0 
Q 1141 0 747 490 
Q 353 981 353 1791 
Q 353 2603 747 3093 
Q 1141 3584 1784 3584 
Q 2172 3584 2450 3431 
Q 2728 3278 2906 2969 
L 2906 3500 
L 3481 3500 
L 3481 434 
z
" id="DejaVuSans-67" transform="scale(0.015625)"/>
      <path d="M 4122 4306 
L 4122 3641 
Q 3803 3938 3442 4084 
Q 3081 4231 2675 4231 
Q 1875 4231 1450 3742 
Q 1025 3253 1025 2328 
Q 1025 1406 1450 917 
Q 1875 428 2675 428 
Q 3081 428 3442 575 
Q 3803 722 4122 1019 
L 4122 359 
Q 3791 134 3420 21 
Q 3050 -91 2638 -91 
Q 1578 -91 968 557 
Q 359 1206 359 2328 
Q 359 3453 968 4101 
Q 1578 4750 2638 4750 
Q 3056 4750 3426 4639 
Q 3797 4528 4122 4306 
z
" id="DejaVuSans-43" transform="scale(0.015625)"/>
      <path d="M 1959 3097 
Q 1497 3097 1228 2736 
Q 959 2375 959 1747 
Q 959 1119 1226 758 
Q 1494 397 1959 397 
Q 2419 397 2687 759 
Q 2956 1122 2956 1747 
Q 2956 2369 2687 2733 
Q 2419 3097 1959 3097 
z
M 1959 3584 
Q 2709 3584 3137 3096 
Q 3566 2609 3566 1747 
Q 3566 888 3137 398 
Q 2709 -91 1959 -91 
Q 1206 -91 779 398 
Q 353 888 353 1747 
Q 353 2609 779 3096 
Q 1206 3584 1959 3584 
z
" id="DejaVuSans-6f" transform="scale(0.015625)"/>
      <path d="M 603 4863 
L 1178 4863 
L 1178 0 
L 603 0 
L 603 4863 
z
" id="DejaVuSans-6c" transform="scale(0.015625)"/>
      <path d="M 2631 2963 
Q 2534 3019 2420 3045 
Q 2306 3072 2169 3072 
Q 1681 3072 1420 2755 
Q 1159 2438 1159 1844 
L 1159 0 
L 581 0 
L 581 3500 
L 1159 3500 
L 1159 2956 
Q 1341 3275 1631 3429 
Q 1922 3584 2338 3584 
Q 2397 3584 2469 3576 
Q 2541 3569 2628 3553 
L 2631 2963 
z
" id="DejaVuSans-72" transform="scale(0.015625)"/>
      <path d="M 628 4666 
L 1259 4666 
L 1259 531 
L 3531 531 
L 3531 0 
L 628 0 
L 628 4666 
z
" id="DejaVuSans-4c" transform="scale(0.015625)"/>
     </defs>
     <use xlink:href="#DejaVuSans-62"/>
     <use x="63.476562" xlink:href="#DejaVuSans-67"/>
     <use x="126.953125" xlink:href="#DejaVuSans-43"/>
     <use x="196.777344" xlink:href="#DejaVuSans-6f"/>
     <use x="257.958984" xlink:href="#DejaVuSans-6c"/>
     <use x="285.742188" xlink:href="#DejaVuSans-6f"/>
     <use x="346.923828" xlink:href="#DejaVuSans-72"/>
     <use x="388.037109" xlink:href="#DejaVuSans-4c"/>
    </g>
   </g>
  </g>
 </g>
 <defs>
  <clipPath id="p781682b6cb">
   <rect height="326.16" width="446.4" x="28.942188" y="22.318125"/>
  </clipPath>
 </defs>
</svg>
