<?xml version="1.0" encoding="utf-8" standalone="no"?>
<!DOCTYPE svg PUBLIC "-//W3C//DTD SVG 1.1//EN"
  "http://www.w3.org/Graphics/SVG/1.1/DTD/svg11.dtd">
<svg height="360pt" version="1.1" viewBox="0 0 360 360" width="360pt" xmlns="http://www.w3.org/2000/svg" xmlns:xlink="http://www.w3.org/1999/xlink">
 <metadata>
  <rdf:RDF xmlns:cc="http://creativecommons.org/ns#" xmlns:dc="http://purl.org/dc/elements/1.1/" xmlns:rdf="http://www.w3.org/1999/02/22-rdf-syntax-ns#">
   <cc:Work>
    <dc:type rdf:resource="http://purl.org/dc/dcmitype/StillImage"/>
    <dc:date>2022-12-13T03:41:24.633076</dc:date>
    <dc:format>image/svg+xml</dc:format>
    <dc:creator>
     <cc:Agent>
      <dc:title>Matplotlib v3.4.2, https://matplotlib.org/</dc:title>
     </cc:Agent>
    </dc:creator>
   </cc:Work>
  </rdf:RDF>
 </metadata>
 <defs>
  <style type="text/css">*{stroke-linecap:butt;stroke-linejoin:round;}</style>
 </defs>
 <g id="figure_1">
  <g id="patch_1">
   <path d="M 0 360 
L 360 360 
L 360 0 
L 0 0 
z
" style="fill:none;"/>
  </g>
  <g id="axes_1">
   <g id="patch_2">
    <path d="M 45 315 
L 324 315 
L 324 43.2 
L 45 43.2 
z
" style="fill:#ffffff;"/>
   </g>
   <g id="matplotlib.axis_1">
    <g id="xtick_1">
     <g id="line2d_1">
      <defs>
       <path d="M 0 0 
L 0 3.5 
" id="md5b41b2dde" style="stroke:#000000;stroke-width:0.8;"/>
      </defs>
      <g>
       <use style="stroke:#000000;stroke-width:0.8;" x="45" xlink:href="#md5b41b2dde" y="315"/>
      </g>
     </g>
     <g id="text_1">
      <!-- 0 -->
      <g transform="translate(41.81875 329.598437)scale(0.1 -0.1)">
       <defs>
        <path d="M 2034 4250 
Q 1547 4250 1301 3770 
Q 1056 3291 1056 2328 
Q 1056 1369 1301 889 
Q 1547 409 2034 409 
Q 2525 409 2770 889 
Q 3016 1369 3016 2328 
Q 3016 3291 2770 3770 
Q 2525 4250 2034 4250 
z
M 2034 4750 
Q 2819 4750 3233 4129 
Q 3647 3509 3647 2328 
Q 3647 1150 3233 529 
Q 2819 -91 2034 -91 
Q 1250 -91 836 529 
Q 422 1150 422 2328 
Q 422 3509 836 4129 
Q 1250 4750 2034 4750 
z
" id="DejaVuSans-30" transform="scale(0.015625)"/>
       </defs>
       <use xlink:href="#DejaVuSans-30"/>
      </g>
     </g>
    </g>
    <g id="xtick_2">
     <g id="line2d_2">
      <g>
       <use style="stroke:#000000;stroke-width:0.8;" x="84.857143" xlink:href="#md5b41b2dde" y="315"/>
      </g>
     </g>
     <g id="text_2">
      <!-- 1 -->
      <g transform="translate(81.675893 329.598437)scale(0.1 -0.1)">
       <defs>
        <path d="M 794 531 
L 1825 531 
L 1825 4091 
L 703 3866 
L 703 4441 
L 1819 4666 
L 2450 4666 
L 2450 531 
L 3481 531 
L 3481 0 
L 794 0 
L 794 531 
z
" id="DejaVuSans-31" transform="scale(0.015625)"/>
       </defs>
       <use xlink:href="#DejaVuSans-31"/>
      </g>
     </g>
    </g>
    <g id="xtick_3">
     <g id="line2d_3">
      <g>
       <use style="stroke:#000000;stroke-width:0.8;" x="124.714286" xlink:href="#md5b41b2dde" y="315"/>
      </g>
     </g>
     <g id="text_3">
      <!-- 2 -->
      <g transform="translate(121.533036 329.598437)scale(0.1 -0.1)">
       <defs>
        <path d="M 1228 531 
L 3431 531 
L 3431 0 
L 469 0 
L 469 531 
Q 828 903 1448 1529 
Q 2069 2156 2228 2338 
Q 2531 2678 2651 2914 
Q 2772 3150 2772 3378 
Q 2772 3750 2511 3984 
Q 2250 4219 1831 4219 
Q 1534 4219 1204 4116 
Q 875 4013 500 3803 
L 500 4441 
Q 881 4594 1212 4672 
Q 1544 4750 1819 4750 
Q 2544 4750 2975 4387 
Q 3406 4025 3406 3419 
Q 3406 3131 3298 2873 
Q 3191 2616 2906 2266 
Q 2828 2175 2409 1742 
Q 1991 1309 1228 531 
z
" id="DejaVuSans-32" transform="scale(0.015625)"/>
       </defs>
       <use xlink:href="#DejaVuSans-32"/>
      </g>
     </g>
    </g>
    <g id="xtick_4">
     <g id="line2d_4">
      <g>
       <use style="stroke:#000000;stroke-width:0.8;" x="164.571429" xlink:href="#md5b41b2dde" y="315"/>
      </g>
     </g>
     <g id="text_4">
      <!-- 3 -->
      <g transform="translate(161.390179 329.598437)scale(0.1 -0.1)">
       <defs>
        <path d="M 2597 2516 
Q 3050 2419 3304 2112 
Q 3559 1806 3559 1356 
Q 3559 666 3084 287 
Q 2609 -91 1734 -91 
Q 1441 -91 1130 -33 
Q 819 25 488 141 
L 488 750 
Q 750 597 1062 519 
Q 1375 441 1716 441 
Q 2309 441 2620 675 
Q 2931 909 2931 1356 
Q 2931 1769 2642 2001 
Q 2353 2234 1838 2234 
L 1294 2234 
L 1294 2753 
L 1863 2753 
Q 2328 2753 2575 2939 
Q 2822 3125 2822 3475 
Q 2822 3834 2567 4026 
Q 2313 4219 1838 4219 
Q 1578 4219 1281 4162 
Q 984 4106 628 3988 
L 628 4550 
Q 988 4650 1302 4700 
Q 1616 4750 1894 4750 
Q 2613 4750 3031 4423 
Q 3450 4097 3450 3541 
Q 3450 3153 3228 2886 
Q 3006 2619 2597 2516 
z
" id="DejaVuSans-33" transform="scale(0.015625)"/>
       </defs>
       <use xlink:href="#DejaVuSans-33"/>
      </g>
     </g>
    </g>
    <g id="xtick_5">
     <g id="line2d_5">
      <g>
       <use style="stroke:#000000;stroke-width:0.8;" x="204.428571" xlink:href="#md5b41b2dde" y="315"/>
      </g>
     </g>
     <g id="text_5">
      <!-- 4 -->
      <g transform="translate(201.247321 329.598437)scale(0.1 -0.1)">
       <defs>
        <path d="M 2419 4116 
L 825 1625 
L 2419 1625 
L 2419 4116 
z
M 2253 4666 
L 3047 4666 
L 3047 1625 
L 3713 1625 
L 3713 1100 
L 3047 1100 
L 3047 0 
L 2419 0 
L 2419 1100 
L 313 1100 
L 313 1709 
L 2253 4666 
z
" id="DejaVuSans-34" transform="scale(0.015625)"/>
       </defs>
       <use xlink:href="#DejaVuSans-34"/>
      </g>
     </g>
    </g>
    <g id="xtick_6">
     <g id="line2d_6">
      <g>
       <use style="stroke:#000000;stroke-width:0.8;" x="244.285714" xlink:href="#md5b41b2dde" y="315"/>
      </g>
     </g>
     <g id="text_6">
      <!-- 5 -->
      <g transform="translate(241.104464 329.598437)scale(0.1 -0.1)">
       <defs>
        <path d="M 691 4666 
L 3169 4666 
L 3169 4134 
L 1269 4134 
L 1269 2991 
Q 1406 3038 1543 3061 
Q 1681 3084 1819 3084 
Q 2600 3084 3056 2656 
Q 3513 2228 3513 1497 
Q 3513 744 3044 326 
Q 2575 -91 1722 -91 
Q 1428 -91 1123 -41 
Q 819 9 494 109 
L 494 744 
Q 775 591 1075 516 
Q 1375 441 1709 441 
Q 2250 441 2565 725 
Q 2881 1009 2881 1497 
Q 2881 1984 2565 2268 
Q 2250 2553 1709 2553 
Q 1456 2553 1204 2497 
Q 953 2441 691 2322 
L 691 4666 
z
" id="DejaVuSans-35" transform="scale(0.015625)"/>
       </defs>
       <use xlink:href="#DejaVuSans-35"/>
      </g>
     </g>
    </g>
    <g id="xtick_7">
     <g id="line2d_7">
      <g>
       <use style="stroke:#000000;stroke-width:0.8;" x="284.142857" xlink:href="#md5b41b2dde" y="315"/>
      </g>
     </g>
     <g id="text_7">
      <!-- 6 -->
      <g transform="translate(280.961607 329.598437)scale(0.1 -0.1)">
       <defs>
        <path d="M 2113 2584 
Q 1688 2584 1439 2293 
Q 1191 2003 1191 1497 
Q 1191 994 1439 701 
Q 1688 409 2113 409 
Q 2538 409 2786 701 
Q 3034 994 3034 1497 
Q 3034 2003 2786 2293 
Q 2538 2584 2113 2584 
z
M 3366 4563 
L 3366 3988 
Q 3128 4100 2886 4159 
Q 2644 4219 2406 4219 
Q 1781 4219 1451 3797 
Q 1122 3375 1075 2522 
Q 1259 2794 1537 2939 
Q 1816 3084 2150 3084 
Q 2853 3084 3261 2657 
Q 3669 2231 3669 1497 
Q 3669 778 3244 343 
Q 2819 -91 2113 -91 
Q 1303 -91 875 529 
Q 447 1150 447 2328 
Q 447 3434 972 4092 
Q 1497 4750 2381 4750 
Q 2619 4750 2861 4703 
Q 3103 4656 3366 4563 
z
" id="DejaVuSans-36" transform="scale(0.015625)"/>
       </defs>
       <use xlink:href="#DejaVuSans-36"/>
      </g>
     </g>
    </g>
    <g id="xtick_8">
     <g id="line2d_8">
      <g>
       <use style="stroke:#000000;stroke-width:0.8;" x="324" xlink:href="#md5b41b2dde" y="315"/>
      </g>
     </g>
     <g id="text_8">
      <!-- 7 -->
      <g transform="translate(320.81875 329.598437)scale(0.1 -0.1)">
       <defs>
        <path d="M 525 4666 
L 3525 4666 
L 3525 4397 
L 1831 0 
L 1172 0 
L 2766 4134 
L 525 4134 
L 525 4666 
z
" id="DejaVuSans-37" transform="scale(0.015625)"/>
       </defs>
       <use xlink:href="#DejaVuSans-37"/>
      </g>
     </g>
    </g>
   </g>
   <g id="matplotlib.axis_2">
    <g id="ytick_1">
     <g id="line2d_9">
      <defs>
       <path d="M 0 0 
L -3.5 0 
" id="m6394f55a86" style="stroke:#000000;stroke-width:0.8;"/>
      </defs>
      <g>
       <use style="stroke:#000000;stroke-width:0.8;" x="45" xlink:href="#m6394f55a86" y="302.645455"/>
      </g>
     </g>
     <g id="text_9">
      <!-- 1 -->
      <g transform="translate(31.6375 306.444673)scale(0.1 -0.1)">
       <use xlink:href="#DejaVuSans-31"/>
      </g>
     </g>
    </g>
    <g id="ytick_2">
     <g id="line2d_10">
      <g>
       <use style="stroke:#000000;stroke-width:0.8;" x="45" xlink:href="#m6394f55a86" y="253.227273"/>
      </g>
     </g>
     <g id="text_10">
      <!-- 2 -->
      <g transform="translate(31.6375 257.026491)scale(0.1 -0.1)">
       <use xlink:href="#DejaVuSans-32"/>
      </g>
     </g>
    </g>
    <g id="ytick_3">
     <g id="line2d_11">
      <g>
       <use style="stroke:#000000;stroke-width:0.8;" x="45" xlink:href="#m6394f55a86" y="203.809091"/>
      </g>
     </g>
     <g id="text_11">
      <!-- 3 -->
      <g transform="translate(31.6375 207.60831)scale(0.1 -0.1)">
       <use xlink:href="#DejaVuSans-33"/>
      </g>
     </g>
    </g>
    <g id="ytick_4">
     <g id="line2d_12">
      <g>
       <use style="stroke:#000000;stroke-width:0.8;" x="45" xlink:href="#m6394f55a86" y="154.390909"/>
      </g>
     </g>
     <g id="text_12">
      <!-- 4 -->
      <g transform="translate(31.6375 158.190128)scale(0.1 -0.1)">
       <use xlink:href="#DejaVuSans-34"/>
      </g>
     </g>
    </g>
    <g id="ytick_5">
     <g id="line2d_13">
      <g>
       <use style="stroke:#000000;stroke-width:0.8;" x="45" xlink:href="#m6394f55a86" y="104.972727"/>
      </g>
     </g>
     <g id="text_13">
      <!-- 5 -->
      <g transform="translate(31.6375 108.771946)scale(0.1 -0.1)">
       <use xlink:href="#DejaVuSans-35"/>
      </g>
     </g>
    </g>
    <g id="ytick_6">
     <g id="line2d_14">
      <g>
       <use style="stroke:#000000;stroke-width:0.8;" x="45" xlink:href="#m6394f55a86" y="55.554545"/>
      </g>
     </g>
     <g id="text_14">
      <!-- 6 -->
      <g transform="translate(31.6375 59.353764)scale(0.1 -0.1)">
       <use xlink:href="#DejaVuSans-36"/>
      </g>
     </g>
    </g>
   </g>
   <g id="LineCollection_1">
    <path clip-path="url(#pce657be0eb)" d="M 114.728236 55.554545 
L 151.381433 55.554545 
" style="fill:none;stroke:#e15659;stroke-width:3;"/>
   </g>
   <g id="LineCollection_2">
    <path clip-path="url(#pce657be0eb)" d="M 98.839251 104.972727 
L 130.192547 104.972727 
" style="fill:none;stroke:#e15659;stroke-width:3;"/>
   </g>
   <g id="LineCollection_3">
    <path clip-path="url(#pce657be0eb)" d="M 100.022478 154.390909 
L 132.439249 154.390909 
" style="fill:none;stroke:#e15659;stroke-width:3;"/>
   </g>
   <g id="LineCollection_4">
    <path clip-path="url(#pce657be0eb)" d="M 98.786933 203.809091 
L 133.827223 203.809091 
" style="fill:none;stroke:#e15659;stroke-width:3;"/>
   </g>
   <g id="LineCollection_5">
    <path clip-path="url(#pce657be0eb)" d="M 76.935436 253.227273 
L 104.885996 253.227273 
" style="fill:none;stroke:#e15659;stroke-width:3;"/>
   </g>
   <g id="LineCollection_6">
    <path clip-path="url(#pce657be0eb)" d="M 77.489471 302.645455 
L 105.865166 302.645455 
" style="fill:none;stroke:#e15659;stroke-width:3;"/>
   </g>
   <g id="LineCollection_7">
    <path clip-path="url(#pce657be0eb)" d="M 175.381113 55.554545 
L 186.113799 55.554545 
" style="fill:none;stroke:#e15659;stroke-width:3;"/>
   </g>
   <g id="LineCollection_8">
    <path clip-path="url(#pce657be0eb)" d="M 251.532929 104.972727 
L 261.050098 104.972727 
" style="fill:none;stroke:#e15659;stroke-width:3;"/>
   </g>
   <g id="LineCollection_9">
    <path clip-path="url(#pce657be0eb)" d="M 64.250437 154.390909 
L 67.693767 154.390909 
" style="fill:none;stroke:#e15659;stroke-width:3;"/>
   </g>
   <g id="LineCollection_10">
    <path clip-path="url(#pce657be0eb)" d="M 71.417434 203.809091 
L 76.045435 203.809091 
" style="fill:none;stroke:#e15659;stroke-width:3;"/>
   </g>
   <g id="LineCollection_11">
    <path clip-path="url(#pce657be0eb)" d="M 253.184429 253.227273 
L 263.030273 253.227273 
" style="fill:none;stroke:#e15659;stroke-width:3;"/>
   </g>
   <g id="LineCollection_12">
    <path clip-path="url(#pce657be0eb)" d="M 271.710111 302.645455 
L 280.444792 302.645455 
" style="fill:none;stroke:#e15659;stroke-width:3;"/>
   </g>
   <g id="line2d_15">
    <path clip-path="url(#pce657be0eb)" d="M 114.515899 104.972727 
L 133.054834 55.554545 
" style="fill:none;stroke:#e15659;stroke-linecap:square;stroke-width:1.5;"/>
   </g>
   <g id="line2d_16">
    <path clip-path="url(#pce657be0eb)" d="M 116.230864 154.390909 
L 114.515899 104.972727 
" style="fill:none;stroke:#e15659;stroke-linecap:square;stroke-width:1.5;"/>
   </g>
   <g id="line2d_17">
    <path clip-path="url(#pce657be0eb)" d="M 116.307078 203.809091 
L 116.230864 154.390909 
" style="fill:none;stroke:#e15659;stroke-linecap:square;stroke-width:1.5;"/>
   </g>
   <g id="line2d_18">
    <path clip-path="url(#pce657be0eb)" d="M 90.910716 253.227273 
L 116.307078 203.809091 
" style="fill:none;stroke:#e15659;stroke-linecap:square;stroke-width:1.5;"/>
   </g>
   <g id="line2d_19">
    <path clip-path="url(#pce657be0eb)" d="M 91.677319 302.645455 
L 90.910716 253.227273 
" style="fill:none;stroke:#e15659;stroke-linecap:square;stroke-width:1.5;"/>
   </g>
   <g id="line2d_20">
    <path clip-path="url(#pce657be0eb)" d="M 256.291513 104.972727 
L 180.747456 55.554545 
" style="fill:none;stroke:#e15659;stroke-linecap:square;stroke-width:1.5;"/>
   </g>
   <g id="line2d_21">
    <path clip-path="url(#pce657be0eb)" d="M 65.972102 154.390909 
L 256.291513 104.972727 
" style="fill:none;stroke:#e15659;stroke-linecap:square;stroke-width:1.5;"/>
   </g>
   <g id="line2d_22">
    <path clip-path="url(#pce657be0eb)" d="M 73.731435 203.809091 
L 65.972102 154.390909 
" style="fill:none;stroke:#e15659;stroke-linecap:square;stroke-width:1.5;"/>
   </g>
   <g id="line2d_23">
    <path clip-path="url(#pce657be0eb)" d="M 258.107351 253.227273 
L 73.731435 203.809091 
" style="fill:none;stroke:#e15659;stroke-linecap:square;stroke-width:1.5;"/>
   </g>
   <g id="line2d_24">
    <path clip-path="url(#pce657be0eb)" d="M 276.077452 302.645455 
L 258.107351 253.227273 
" style="fill:none;stroke:#e15659;stroke-linecap:square;stroke-width:1.5;"/>
   </g>
   <g id="line2d_25">
    <defs>
     <path d="M 0 4.5 
C 1.193414 4.5 2.338109 4.025852 3.181981 3.181981 
C 4.025852 2.338109 4.5 1.193414 4.5 0 
C 4.5 -1.193414 4.025852 -2.338109 3.181981 -3.181981 
C 2.338109 -4.025852 1.193414 -4.5 0 -4.5 
C -1.193414 -4.5 -2.338109 -4.025852 -3.181981 -3.181981 
C -4.025852 -2.338109 -4.5 -1.193414 -4.5 0 
C -4.5 1.193414 -4.025852 2.338109 -3.181981 3.181981 
C -2.338109 4.025852 -1.193414 4.5 0 4.5 
z
" id="me24219f843" style="stroke:#e15659;"/>
    </defs>
    <g clip-path="url(#pce657be0eb)">
     <use style="fill:#e15659;stroke:#e15659;" x="133.054834" xlink:href="#me24219f843" y="55.554545"/>
    </g>
   </g>
   <g id="line2d_26">
    <g clip-path="url(#pce657be0eb)">
     <use style="fill:#e15659;stroke:#e15659;" x="114.515899" xlink:href="#me24219f843" y="104.972727"/>
    </g>
   </g>
   <g id="line2d_27">
    <g clip-path="url(#pce657be0eb)">
     <use style="fill:#e15659;stroke:#e15659;" x="116.230864" xlink:href="#me24219f843" y="154.390909"/>
    </g>
   </g>
   <g id="line2d_28">
    <g clip-path="url(#pce657be0eb)">
     <use style="fill:#e15659;stroke:#e15659;" x="116.307078" xlink:href="#me24219f843" y="203.809091"/>
    </g>
   </g>
   <g id="line2d_29">
    <g clip-path="url(#pce657be0eb)">
     <use style="fill:#e15659;stroke:#e15659;" x="90.910716" xlink:href="#me24219f843" y="253.227273"/>
    </g>
   </g>
   <g id="line2d_30">
    <g clip-path="url(#pce657be0eb)">
     <use style="fill:#e15659;stroke:#e15659;" x="91.677319" xlink:href="#me24219f843" y="302.645455"/>
    </g>
   </g>
   <g id="line2d_31">
    <defs>
     <path d="M 0 -4.5 
L -4.5 4.5 
L 4.5 4.5 
z
" id="mb2523ae8dd" style="stroke:#e15659;stroke-linejoin:miter;"/>
    </defs>
    <g clip-path="url(#pce657be0eb)">
     <use style="fill:#e15659;stroke:#e15659;stroke-linejoin:miter;" x="180.747456" xlink:href="#mb2523ae8dd" y="55.554545"/>
    </g>
   </g>
   <g id="line2d_32">
    <g clip-path="url(#pce657be0eb)">
     <use style="fill:#e15659;stroke:#e15659;stroke-linejoin:miter;" x="256.291513" xlink:href="#mb2523ae8dd" y="104.972727"/>
    </g>
   </g>
   <g id="line2d_33">
    <g clip-path="url(#pce657be0eb)">
     <use style="fill:#e15659;stroke:#e15659;stroke-linejoin:miter;" x="65.972102" xlink:href="#mb2523ae8dd" y="154.390909"/>
    </g>
   </g>
   <g id="line2d_34">
    <g clip-path="url(#pce657be0eb)">
     <use style="fill:#e15659;stroke:#e15659;stroke-linejoin:miter;" x="73.731435" xlink:href="#mb2523ae8dd" y="203.809091"/>
    </g>
   </g>
   <g id="line2d_35">
    <g clip-path="url(#pce657be0eb)">
     <use style="fill:#e15659;stroke:#e15659;stroke-linejoin:miter;" x="258.107351" xlink:href="#mb2523ae8dd" y="253.227273"/>
    </g>
   </g>
   <g id="line2d_36">
    <g clip-path="url(#pce657be0eb)">
     <use style="fill:#e15659;stroke:#e15659;stroke-linejoin:miter;" x="276.077452" xlink:href="#mb2523ae8dd" y="302.645455"/>
    </g>
   </g>
   <g id="patch_3">
    <path d="M 45 315 
L 45 43.2 
" style="fill:none;stroke:#000000;stroke-linecap:square;stroke-linejoin:miter;stroke-width:0.8;"/>
   </g>
   <g id="patch_4">
    <path d="M 324 315 
L 324 43.2 
" style="fill:none;stroke:#000000;stroke-linecap:square;stroke-linejoin:miter;stroke-width:0.8;"/>
   </g>
   <g id="patch_5">
    <path d="M 45 315 
L 324 315 
" style="fill:none;stroke:#000000;stroke-linecap:square;stroke-linejoin:miter;stroke-width:0.8;"/>
   </g>
   <g id="patch_6">
    <path d="M 45 43.2 
L 324 43.2 
" style="fill:none;stroke:#000000;stroke-linecap:square;stroke-linejoin:miter;stroke-width:0.8;"/>
   </g>
  </g>
 </g>
 <defs>
  <clipPath id="pce657be0eb">
   <rect height="271.8" width="279" x="45" y="43.2"/>
  </clipPath>
 </defs>
</svg>
