<?xml version="1.0" encoding="utf-8" standalone="no"?>
<!DOCTYPE svg PUBLIC "-//W3C//DTD SVG 1.1//EN"
  "http://www.w3.org/Graphics/SVG/1.1/DTD/svg11.dtd">
<svg height="360pt" version="1.1" viewBox="0 0 360 360" width="360pt" xmlns="http://www.w3.org/2000/svg" xmlns:xlink="http://www.w3.org/1999/xlink">
 <metadata>
  <rdf:RDF xmlns:cc="http://creativecommons.org/ns#" xmlns:dc="http://purl.org/dc/elements/1.1/" xmlns:rdf="http://www.w3.org/1999/02/22-rdf-syntax-ns#">
   <cc:Work>
    <dc:type rdf:resource="http://purl.org/dc/dcmitype/StillImage"/>
    <dc:date>2022-12-13T03:43:53.537986</dc:date>
    <dc:format>image/svg+xml</dc:format>
    <dc:creator>
     <cc:Agent>
      <dc:title>Matplotlib v3.4.2, https://matplotlib.org/</dc:title>
     </cc:Agent>
    </dc:creator>
   </cc:Work>
  </rdf:RDF>
 </metadata>
 <defs>
  <style type="text/css">*{stroke-linecap:butt;stroke-linejoin:round;}</style>
 </defs>
 <g id="figure_1">
  <g id="patch_1">
   <path d="M 0 360 
L 360 360 
L 360 0 
L 0 0 
z
" style="fill:none;"/>
  </g>
  <g id="axes_1">
   <g id="patch_2">
    <path d="M 45 315 
L 324 315 
L 324 43.2 
L 45 43.2 
z
" style="fill:#ffffff;"/>
   </g>
   <g id="matplotlib.axis_1">
    <g id="xtick_1">
     <g id="line2d_1">
      <defs>
       <path d="M 0 0 
L 0 3.5 
" id="m4c76c0e73d" style="stroke:#000000;stroke-width:0.8;"/>
      </defs>
      <g>
       <use style="stroke:#000000;stroke-width:0.8;" x="45" xlink:href="#m4c76c0e73d" y="315"/>
      </g>
     </g>
     <g id="text_1">
      <!-- −3 -->
      <g transform="translate(37.628906 329.598437)scale(0.1 -0.1)">
       <defs>
        <path d="M 678 2272 
L 4684 2272 
L 4684 1741 
L 678 1741 
L 678 2272 
z
" id="DejaVuSans-2212" transform="scale(0.015625)"/>
        <path d="M 2597 2516 
Q 3050 2419 3304 2112 
Q 3559 1806 3559 1356 
Q 3559 666 3084 287 
Q 2609 -91 1734 -91 
Q 1441 -91 1130 -33 
Q 819 25 488 141 
L 488 750 
Q 750 597 1062 519 
Q 1375 441 1716 441 
Q 2309 441 2620 675 
Q 2931 909 2931 1356 
Q 2931 1769 2642 2001 
Q 2353 2234 1838 2234 
L 1294 2234 
L 1294 2753 
L 1863 2753 
Q 2328 2753 2575 2939 
Q 2822 3125 2822 3475 
Q 2822 3834 2567 4026 
Q 2313 4219 1838 4219 
Q 1578 4219 1281 4162 
Q 984 4106 628 3988 
L 628 4550 
Q 988 4650 1302 4700 
Q 1616 4750 1894 4750 
Q 2613 4750 3031 4423 
Q 3450 4097 3450 3541 
Q 3450 3153 3228 2886 
Q 3006 2619 2597 2516 
z
" id="DejaVuSans-33" transform="scale(0.015625)"/>
       </defs>
       <use xlink:href="#DejaVuSans-2212"/>
       <use x="83.789062" xlink:href="#DejaVuSans-33"/>
      </g>
     </g>
    </g>
    <g id="xtick_2">
     <g id="line2d_2">
      <g>
       <use style="stroke:#000000;stroke-width:0.8;" x="79.875" xlink:href="#m4c76c0e73d" y="315"/>
      </g>
     </g>
     <g id="text_2">
      <!-- −2 -->
      <g transform="translate(72.503906 329.598437)scale(0.1 -0.1)">
       <defs>
        <path d="M 1228 531 
L 3431 531 
L 3431 0 
L 469 0 
L 469 531 
Q 828 903 1448 1529 
Q 2069 2156 2228 2338 
Q 2531 2678 2651 2914 
Q 2772 3150 2772 3378 
Q 2772 3750 2511 3984 
Q 2250 4219 1831 4219 
Q 1534 4219 1204 4116 
Q 875 4013 500 3803 
L 500 4441 
Q 881 4594 1212 4672 
Q 1544 4750 1819 4750 
Q 2544 4750 2975 4387 
Q 3406 4025 3406 3419 
Q 3406 3131 3298 2873 
Q 3191 2616 2906 2266 
Q 2828 2175 2409 1742 
Q 1991 1309 1228 531 
z
" id="DejaVuSans-32" transform="scale(0.015625)"/>
       </defs>
       <use xlink:href="#DejaVuSans-2212"/>
       <use x="83.789062" xlink:href="#DejaVuSans-32"/>
      </g>
     </g>
    </g>
    <g id="xtick_3">
     <g id="line2d_3">
      <g>
       <use style="stroke:#000000;stroke-width:0.8;" x="114.75" xlink:href="#m4c76c0e73d" y="315"/>
      </g>
     </g>
     <g id="text_3">
      <!-- −1 -->
      <g transform="translate(107.378906 329.598437)scale(0.1 -0.1)">
       <defs>
        <path d="M 794 531 
L 1825 531 
L 1825 4091 
L 703 3866 
L 703 4441 
L 1819 4666 
L 2450 4666 
L 2450 531 
L 3481 531 
L 3481 0 
L 794 0 
L 794 531 
z
" id="DejaVuSans-31" transform="scale(0.015625)"/>
       </defs>
       <use xlink:href="#DejaVuSans-2212"/>
       <use x="83.789062" xlink:href="#DejaVuSans-31"/>
      </g>
     </g>
    </g>
    <g id="xtick_4">
     <g id="line2d_4">
      <g>
       <use style="stroke:#000000;stroke-width:0.8;" x="149.625" xlink:href="#m4c76c0e73d" y="315"/>
      </g>
     </g>
     <g id="text_4">
      <!-- 0 -->
      <g transform="translate(146.44375 329.598437)scale(0.1 -0.1)">
       <defs>
        <path d="M 2034 4250 
Q 1547 4250 1301 3770 
Q 1056 3291 1056 2328 
Q 1056 1369 1301 889 
Q 1547 409 2034 409 
Q 2525 409 2770 889 
Q 3016 1369 3016 2328 
Q 3016 3291 2770 3770 
Q 2525 4250 2034 4250 
z
M 2034 4750 
Q 2819 4750 3233 4129 
Q 3647 3509 3647 2328 
Q 3647 1150 3233 529 
Q 2819 -91 2034 -91 
Q 1250 -91 836 529 
Q 422 1150 422 2328 
Q 422 3509 836 4129 
Q 1250 4750 2034 4750 
z
" id="DejaVuSans-30" transform="scale(0.015625)"/>
       </defs>
       <use xlink:href="#DejaVuSans-30"/>
      </g>
     </g>
    </g>
    <g id="xtick_5">
     <g id="line2d_5">
      <g>
       <use style="stroke:#000000;stroke-width:0.8;" x="184.5" xlink:href="#m4c76c0e73d" y="315"/>
      </g>
     </g>
     <g id="text_5">
      <!-- 1 -->
      <g transform="translate(181.31875 329.598437)scale(0.1 -0.1)">
       <use xlink:href="#DejaVuSans-31"/>
      </g>
     </g>
    </g>
    <g id="xtick_6">
     <g id="line2d_6">
      <g>
       <use style="stroke:#000000;stroke-width:0.8;" x="219.375" xlink:href="#m4c76c0e73d" y="315"/>
      </g>
     </g>
     <g id="text_6">
      <!-- 2 -->
      <g transform="translate(216.19375 329.598437)scale(0.1 -0.1)">
       <use xlink:href="#DejaVuSans-32"/>
      </g>
     </g>
    </g>
    <g id="xtick_7">
     <g id="line2d_7">
      <g>
       <use style="stroke:#000000;stroke-width:0.8;" x="254.25" xlink:href="#m4c76c0e73d" y="315"/>
      </g>
     </g>
     <g id="text_7">
      <!-- 3 -->
      <g transform="translate(251.06875 329.598437)scale(0.1 -0.1)">
       <use xlink:href="#DejaVuSans-33"/>
      </g>
     </g>
    </g>
    <g id="xtick_8">
     <g id="line2d_8">
      <g>
       <use style="stroke:#000000;stroke-width:0.8;" x="289.125" xlink:href="#m4c76c0e73d" y="315"/>
      </g>
     </g>
     <g id="text_8">
      <!-- 4 -->
      <g transform="translate(285.94375 329.598437)scale(0.1 -0.1)">
       <defs>
        <path d="M 2419 4116 
L 825 1625 
L 2419 1625 
L 2419 4116 
z
M 2253 4666 
L 3047 4666 
L 3047 1625 
L 3713 1625 
L 3713 1100 
L 3047 1100 
L 3047 0 
L 2419 0 
L 2419 1100 
L 313 1100 
L 313 1709 
L 2253 4666 
z
" id="DejaVuSans-34" transform="scale(0.015625)"/>
       </defs>
       <use xlink:href="#DejaVuSans-34"/>
      </g>
     </g>
    </g>
    <g id="xtick_9">
     <g id="line2d_9">
      <g>
       <use style="stroke:#000000;stroke-width:0.8;" x="324" xlink:href="#m4c76c0e73d" y="315"/>
      </g>
     </g>
     <g id="text_9">
      <!-- 5 -->
      <g transform="translate(320.81875 329.598437)scale(0.1 -0.1)">
       <defs>
        <path d="M 691 4666 
L 3169 4666 
L 3169 4134 
L 1269 4134 
L 1269 2991 
Q 1406 3038 1543 3061 
Q 1681 3084 1819 3084 
Q 2600 3084 3056 2656 
Q 3513 2228 3513 1497 
Q 3513 744 3044 326 
Q 2575 -91 1722 -91 
Q 1428 -91 1123 -41 
Q 819 9 494 109 
L 494 744 
Q 775 591 1075 516 
Q 1375 441 1709 441 
Q 2250 441 2565 725 
Q 2881 1009 2881 1497 
Q 2881 1984 2565 2268 
Q 2250 2553 1709 2553 
Q 1456 2553 1204 2497 
Q 953 2441 691 2322 
L 691 4666 
z
" id="DejaVuSans-35" transform="scale(0.015625)"/>
       </defs>
       <use xlink:href="#DejaVuSans-35"/>
      </g>
     </g>
    </g>
   </g>
   <g id="matplotlib.axis_2">
    <g id="ytick_1">
     <g id="line2d_10">
      <defs>
       <path d="M 0 0 
L -3.5 0 
" id="m6073f6c662" style="stroke:#000000;stroke-width:0.8;"/>
      </defs>
      <g>
       <use style="stroke:#000000;stroke-width:0.8;" x="45" xlink:href="#m6073f6c662" y="302.645455"/>
      </g>
     </g>
     <g id="text_10">
      <!-- 1 -->
      <g transform="translate(31.6375 306.444673)scale(0.1 -0.1)">
       <use xlink:href="#DejaVuSans-31"/>
      </g>
     </g>
    </g>
    <g id="ytick_2">
     <g id="line2d_11">
      <g>
       <use style="stroke:#000000;stroke-width:0.8;" x="45" xlink:href="#m6073f6c662" y="261.463636"/>
      </g>
     </g>
     <g id="text_11">
      <!-- 2 -->
      <g transform="translate(31.6375 265.262855)scale(0.1 -0.1)">
       <use xlink:href="#DejaVuSans-32"/>
      </g>
     </g>
    </g>
    <g id="ytick_3">
     <g id="line2d_12">
      <g>
       <use style="stroke:#000000;stroke-width:0.8;" x="45" xlink:href="#m6073f6c662" y="220.281818"/>
      </g>
     </g>
     <g id="text_12">
      <!-- 3 -->
      <g transform="translate(31.6375 224.081037)scale(0.1 -0.1)">
       <use xlink:href="#DejaVuSans-33"/>
      </g>
     </g>
    </g>
    <g id="ytick_4">
     <g id="line2d_13">
      <g>
       <use style="stroke:#000000;stroke-width:0.8;" x="45" xlink:href="#m6073f6c662" y="179.1"/>
      </g>
     </g>
     <g id="text_13">
      <!-- 4 -->
      <g transform="translate(31.6375 182.899219)scale(0.1 -0.1)">
       <use xlink:href="#DejaVuSans-34"/>
      </g>
     </g>
    </g>
    <g id="ytick_5">
     <g id="line2d_14">
      <g>
       <use style="stroke:#000000;stroke-width:0.8;" x="45" xlink:href="#m6073f6c662" y="137.918182"/>
      </g>
     </g>
     <g id="text_14">
      <!-- 5 -->
      <g transform="translate(31.6375 141.717401)scale(0.1 -0.1)">
       <use xlink:href="#DejaVuSans-35"/>
      </g>
     </g>
    </g>
    <g id="ytick_6">
     <g id="line2d_15">
      <g>
       <use style="stroke:#000000;stroke-width:0.8;" x="45" xlink:href="#m6073f6c662" y="96.736364"/>
      </g>
     </g>
     <g id="text_15">
      <!-- 6 -->
      <g transform="translate(31.6375 100.535582)scale(0.1 -0.1)">
       <defs>
        <path d="M 2113 2584 
Q 1688 2584 1439 2293 
Q 1191 2003 1191 1497 
Q 1191 994 1439 701 
Q 1688 409 2113 409 
Q 2538 409 2786 701 
Q 3034 994 3034 1497 
Q 3034 2003 2786 2293 
Q 2538 2584 2113 2584 
z
M 3366 4563 
L 3366 3988 
Q 3128 4100 2886 4159 
Q 2644 4219 2406 4219 
Q 1781 4219 1451 3797 
Q 1122 3375 1075 2522 
Q 1259 2794 1537 2939 
Q 1816 3084 2150 3084 
Q 2853 3084 3261 2657 
Q 3669 2231 3669 1497 
Q 3669 778 3244 343 
Q 2819 -91 2113 -91 
Q 1303 -91 875 529 
Q 447 1150 447 2328 
Q 447 3434 972 4092 
Q 1497 4750 2381 4750 
Q 2619 4750 2861 4703 
Q 3103 4656 3366 4563 
z
" id="DejaVuSans-36" transform="scale(0.015625)"/>
       </defs>
       <use xlink:href="#DejaVuSans-36"/>
      </g>
     </g>
    </g>
    <g id="ytick_7">
     <g id="line2d_16">
      <g>
       <use style="stroke:#000000;stroke-width:0.8;" x="45" xlink:href="#m6073f6c662" y="55.554545"/>
      </g>
     </g>
     <g id="text_16">
      <!-- 7 -->
      <g transform="translate(31.6375 59.353764)scale(0.1 -0.1)">
       <defs>
        <path d="M 525 4666 
L 3525 4666 
L 3525 4397 
L 1831 0 
L 1172 0 
L 2766 4134 
L 525 4134 
L 525 4666 
z
" id="DejaVuSans-37" transform="scale(0.015625)"/>
       </defs>
       <use xlink:href="#DejaVuSans-37"/>
      </g>
     </g>
    </g>
   </g>
   <g id="LineCollection_1">
    <path clip-path="url(#pa0af4482ce)" d="M 211.341696 55.554545 
L 231.889205 55.554545 
" style="fill:none;stroke:#59a14f;stroke-width:3;"/>
   </g>
   <g id="LineCollection_2">
    <path clip-path="url(#pa0af4482ce)" d="M 201.152044 96.736364 
L 229.27997 96.736364 
" style="fill:none;stroke:#59a14f;stroke-width:3;"/>
   </g>
   <g id="LineCollection_3">
    <path clip-path="url(#pa0af4482ce)" d="M 210.947194 137.918182 
L 232.279394 137.918182 
" style="fill:none;stroke:#59a14f;stroke-width:3;"/>
   </g>
   <g id="LineCollection_4">
    <path clip-path="url(#pa0af4482ce)" d="M 208.776278 179.1 
L 231.50688 179.1 
" style="fill:none;stroke:#59a14f;stroke-width:3;"/>
   </g>
   <g id="LineCollection_5">
    <path clip-path="url(#pa0af4482ce)" d="M 200.190027 220.281818 
L 229.011301 220.281818 
" style="fill:none;stroke:#59a14f;stroke-width:3;"/>
   </g>
   <g id="LineCollection_6">
    <path clip-path="url(#pa0af4482ce)" d="M 209.510093 261.463636 
L 241.959898 261.463636 
" style="fill:none;stroke:#59a14f;stroke-width:3;"/>
   </g>
   <g id="LineCollection_7">
    <path clip-path="url(#pa0af4482ce)" d="M 208.071307 302.645455 
L 234.028354 302.645455 
" style="fill:none;stroke:#59a14f;stroke-width:3;"/>
   </g>
   <g id="LineCollection_8">
    <path clip-path="url(#pa0af4482ce)" d="M 273.184594 55.554545 
L 279.725185 55.554545 
" style="fill:none;stroke:#59a14f;stroke-width:3;"/>
   </g>
   <g id="LineCollection_9">
    <path clip-path="url(#pa0af4482ce)" d="M 273.967625 96.736364 
L 279.559396 96.736364 
" style="fill:none;stroke:#59a14f;stroke-width:3;"/>
   </g>
   <g id="LineCollection_10">
    <path clip-path="url(#pa0af4482ce)" d="M 286.208843 137.918182 
L 290.216744 137.918182 
" style="fill:none;stroke:#59a14f;stroke-width:3;"/>
   </g>
   <g id="LineCollection_11">
    <path clip-path="url(#pa0af4482ce)" d="M 141.346582 179.1 
L 148.00719 179.1 
" style="fill:none;stroke:#59a14f;stroke-width:3;"/>
   </g>
   <g id="LineCollection_12">
    <path clip-path="url(#pa0af4482ce)" d="M 83.908944 220.281818 
L 87.749026 220.281818 
" style="fill:none;stroke:#59a14f;stroke-width:3;"/>
   </g>
   <g id="LineCollection_13">
    <path clip-path="url(#pa0af4482ce)" d="M 81.193622 261.463636 
L 85.103494 261.463636 
" style="fill:none;stroke:#59a14f;stroke-width:3;"/>
   </g>
   <g id="LineCollection_14">
    <path clip-path="url(#pa0af4482ce)" d="M 81.111665 302.645455 
L 84.95725 302.645455 
" style="fill:none;stroke:#59a14f;stroke-width:3;"/>
   </g>
   <g id="line2d_17">
    <path clip-path="url(#pa0af4482ce)" d="M 215.216007 96.736364 
L 221.61545 55.554545 
" style="fill:none;stroke:#59a14f;stroke-linecap:square;stroke-width:1.5;"/>
   </g>
   <g id="line2d_18">
    <path clip-path="url(#pa0af4482ce)" d="M 221.613294 137.918182 
L 215.216007 96.736364 
" style="fill:none;stroke:#59a14f;stroke-linecap:square;stroke-width:1.5;"/>
   </g>
   <g id="line2d_19">
    <path clip-path="url(#pa0af4482ce)" d="M 220.141579 179.1 
L 221.613294 137.918182 
" style="fill:none;stroke:#59a14f;stroke-linecap:square;stroke-width:1.5;"/>
   </g>
   <g id="line2d_20">
    <path clip-path="url(#pa0af4482ce)" d="M 214.600664 220.281818 
L 220.141579 179.1 
" style="fill:none;stroke:#59a14f;stroke-linecap:square;stroke-width:1.5;"/>
   </g>
   <g id="line2d_21">
    <path clip-path="url(#pa0af4482ce)" d="M 225.734996 261.463636 
L 214.600664 220.281818 
" style="fill:none;stroke:#59a14f;stroke-linecap:square;stroke-width:1.5;"/>
   </g>
   <g id="line2d_22">
    <path clip-path="url(#pa0af4482ce)" d="M 221.04983 302.645455 
L 225.734996 261.463636 
" style="fill:none;stroke:#59a14f;stroke-linecap:square;stroke-width:1.5;"/>
   </g>
   <g id="line2d_23">
    <path clip-path="url(#pa0af4482ce)" d="M 276.76351 96.736364 
L 276.454889 55.554545 
" style="fill:none;stroke:#59a14f;stroke-linecap:square;stroke-width:1.5;"/>
   </g>
   <g id="line2d_24">
    <path clip-path="url(#pa0af4482ce)" d="M 288.212794 137.918182 
L 276.76351 96.736364 
" style="fill:none;stroke:#59a14f;stroke-linecap:square;stroke-width:1.5;"/>
   </g>
   <g id="line2d_25">
    <path clip-path="url(#pa0af4482ce)" d="M 144.676886 179.1 
L 288.212794 137.918182 
" style="fill:none;stroke:#59a14f;stroke-linecap:square;stroke-width:1.5;"/>
   </g>
   <g id="line2d_26">
    <path clip-path="url(#pa0af4482ce)" d="M 85.828985 220.281818 
L 144.676886 179.1 
" style="fill:none;stroke:#59a14f;stroke-linecap:square;stroke-width:1.5;"/>
   </g>
   <g id="line2d_27">
    <path clip-path="url(#pa0af4482ce)" d="M 83.148558 261.463636 
L 85.828985 220.281818 
" style="fill:none;stroke:#59a14f;stroke-linecap:square;stroke-width:1.5;"/>
   </g>
   <g id="line2d_28">
    <path clip-path="url(#pa0af4482ce)" d="M 83.034458 302.645455 
L 83.148558 261.463636 
" style="fill:none;stroke:#59a14f;stroke-linecap:square;stroke-width:1.5;"/>
   </g>
   <g id="line2d_29">
    <defs>
     <path d="M 0 4.5 
C 1.193414 4.5 2.338109 4.025852 3.181981 3.181981 
C 4.025852 2.338109 4.5 1.193414 4.5 0 
C 4.5 -1.193414 4.025852 -2.338109 3.181981 -3.181981 
C 2.338109 -4.025852 1.193414 -4.5 0 -4.5 
C -1.193414 -4.5 -2.338109 -4.025852 -3.181981 -3.181981 
C -4.025852 -2.338109 -4.5 -1.193414 -4.5 0 
C -4.5 1.193414 -4.025852 2.338109 -3.181981 3.181981 
C -2.338109 4.025852 -1.193414 4.5 0 4.5 
z
" id="mf3829f6377" style="stroke:#59a14f;"/>
    </defs>
    <g clip-path="url(#pa0af4482ce)">
     <use style="fill:#59a14f;stroke:#59a14f;" x="221.61545" xlink:href="#mf3829f6377" y="55.554545"/>
    </g>
   </g>
   <g id="line2d_30">
    <g clip-path="url(#pa0af4482ce)">
     <use style="fill:#59a14f;stroke:#59a14f;" x="215.216007" xlink:href="#mf3829f6377" y="96.736364"/>
    </g>
   </g>
   <g id="line2d_31">
    <g clip-path="url(#pa0af4482ce)">
     <use style="fill:#59a14f;stroke:#59a14f;" x="221.613294" xlink:href="#mf3829f6377" y="137.918182"/>
    </g>
   </g>
   <g id="line2d_32">
    <g clip-path="url(#pa0af4482ce)">
     <use style="fill:#59a14f;stroke:#59a14f;" x="220.141579" xlink:href="#mf3829f6377" y="179.1"/>
    </g>
   </g>
   <g id="line2d_33">
    <g clip-path="url(#pa0af4482ce)">
     <use style="fill:#59a14f;stroke:#59a14f;" x="214.600664" xlink:href="#mf3829f6377" y="220.281818"/>
    </g>
   </g>
   <g id="line2d_34">
    <g clip-path="url(#pa0af4482ce)">
     <use style="fill:#59a14f;stroke:#59a14f;" x="225.734996" xlink:href="#mf3829f6377" y="261.463636"/>
    </g>
   </g>
   <g id="line2d_35">
    <g clip-path="url(#pa0af4482ce)">
     <use style="fill:#59a14f;stroke:#59a14f;" x="221.04983" xlink:href="#mf3829f6377" y="302.645455"/>
    </g>
   </g>
   <g id="line2d_36">
    <defs>
     <path d="M 0 -4.5 
L -4.5 4.5 
L 4.5 4.5 
z
" id="m012dd155c4" style="stroke:#59a14f;stroke-linejoin:miter;"/>
    </defs>
    <g clip-path="url(#pa0af4482ce)">
     <use style="fill:#59a14f;stroke:#59a14f;stroke-linejoin:miter;" x="276.454889" xlink:href="#m012dd155c4" y="55.554545"/>
    </g>
   </g>
   <g id="line2d_37">
    <g clip-path="url(#pa0af4482ce)">
     <use style="fill:#59a14f;stroke:#59a14f;stroke-linejoin:miter;" x="276.76351" xlink:href="#m012dd155c4" y="96.736364"/>
    </g>
   </g>
   <g id="line2d_38">
    <g clip-path="url(#pa0af4482ce)">
     <use style="fill:#59a14f;stroke:#59a14f;stroke-linejoin:miter;" x="288.212794" xlink:href="#m012dd155c4" y="137.918182"/>
    </g>
   </g>
   <g id="line2d_39">
    <g clip-path="url(#pa0af4482ce)">
     <use style="fill:#59a14f;stroke:#59a14f;stroke-linejoin:miter;" x="144.676886" xlink:href="#m012dd155c4" y="179.1"/>
    </g>
   </g>
   <g id="line2d_40">
    <g clip-path="url(#pa0af4482ce)">
     <use style="fill:#59a14f;stroke:#59a14f;stroke-linejoin:miter;" x="85.828985" xlink:href="#m012dd155c4" y="220.281818"/>
    </g>
   </g>
   <g id="line2d_41">
    <g clip-path="url(#pa0af4482ce)">
     <use style="fill:#59a14f;stroke:#59a14f;stroke-linejoin:miter;" x="83.148558" xlink:href="#m012dd155c4" y="261.463636"/>
    </g>
   </g>
   <g id="line2d_42">
    <g clip-path="url(#pa0af4482ce)">
     <use style="fill:#59a14f;stroke:#59a14f;stroke-linejoin:miter;" x="83.034458" xlink:href="#m012dd155c4" y="302.645455"/>
    </g>
   </g>
   <g id="patch_3">
    <path d="M 45 315 
L 45 43.2 
" style="fill:none;stroke:#000000;stroke-linecap:square;stroke-linejoin:miter;stroke-width:0.8;"/>
   </g>
   <g id="patch_4">
    <path d="M 324 315 
L 324 43.2 
" style="fill:none;stroke:#000000;stroke-linecap:square;stroke-linejoin:miter;stroke-width:0.8;"/>
   </g>
   <g id="patch_5">
    <path d="M 45 315 
L 324 315 
" style="fill:none;stroke:#000000;stroke-linecap:square;stroke-linejoin:miter;stroke-width:0.8;"/>
   </g>
   <g id="patch_6">
    <path d="M 45 43.2 
L 324 43.2 
" style="fill:none;stroke:#000000;stroke-linecap:square;stroke-linejoin:miter;stroke-width:0.8;"/>
   </g>
  </g>
 </g>
 <defs>
  <clipPath id="pa0af4482ce">
   <rect height="271.8" width="279" x="45" y="43.2"/>
  </clipPath>
 </defs>
</svg>
