<?xml version="1.0" encoding="utf-8" standalone="no"?>
<!DOCTYPE svg PUBLIC "-//W3C//DTD SVG 1.1//EN"
  "http://www.w3.org/Graphics/SVG/1.1/DTD/svg11.dtd">
<svg height="372.35625pt" version="1.1" viewBox="0 0 482.542187 372.35625" width="482.542187pt" xmlns="http://www.w3.org/2000/svg" xmlns:xlink="http://www.w3.org/1999/xlink">
 <metadata>
  <rdf:RDF xmlns:cc="http://creativecommons.org/ns#" xmlns:dc="http://purl.org/dc/elements/1.1/" xmlns:rdf="http://www.w3.org/1999/02/22-rdf-syntax-ns#">
   <cc:Work>
    <dc:type rdf:resource="http://purl.org/dc/dcmitype/StillImage"/>
    <dc:date>2022-12-11T01:17:57.095087</dc:date>
    <dc:format>image/svg+xml</dc:format>
    <dc:creator>
     <cc:Agent>
      <dc:title>Matplotlib v3.4.2, https://matplotlib.org/</dc:title>
     </cc:Agent>
    </dc:creator>
   </cc:Work>
  </rdf:RDF>
 </metadata>
 <defs>
  <style type="text/css">*{stroke-linecap:butt;stroke-linejoin:round;}</style>
 </defs>
 <g id="figure_1">
  <g id="patch_1">
   <path d="M 0 372.35625 
L 482.542187 372.35625 
L 482.542187 0 
L 0 0 
z
" style="fill:none;"/>
  </g>
  <g id="axes_1">
   <g id="patch_2">
    <path d="M 28.942188 348.478125 
L 475.342187 348.478125 
L 475.342187 22.318125 
L 28.942188 22.318125 
z
" style="fill:#ffffff;"/>
   </g>
   <g id="matplotlib.axis_1">
    <g id="xtick_1">
     <g id="line2d_1">
      <defs>
       <path d="M 0 0 
L 0 3.5 
" id="m083428c10c" style="stroke:#000000;stroke-width:0.8;"/>
      </defs>
      <g>
       <use style="stroke:#000000;stroke-width:0.8;" x="49.233097" xlink:href="#m083428c10c" y="348.478125"/>
      </g>
     </g>
     <g id="text_1">
      <!-- 0.2 -->
      <g transform="translate(41.281534 363.076563)scale(0.1 -0.1)">
       <defs>
        <path d="M 2034 4250 
Q 1547 4250 1301 3770 
Q 1056 3291 1056 2328 
Q 1056 1369 1301 889 
Q 1547 409 2034 409 
Q 2525 409 2770 889 
Q 3016 1369 3016 2328 
Q 3016 3291 2770 3770 
Q 2525 4250 2034 4250 
z
M 2034 4750 
Q 2819 4750 3233 4129 
Q 3647 3509 3647 2328 
Q 3647 1150 3233 529 
Q 2819 -91 2034 -91 
Q 1250 -91 836 529 
Q 422 1150 422 2328 
Q 422 3509 836 4129 
Q 1250 4750 2034 4750 
z
" id="DejaVuSans-30" transform="scale(0.015625)"/>
        <path d="M 684 794 
L 1344 794 
L 1344 0 
L 684 0 
L 684 794 
z
" id="DejaVuSans-2e" transform="scale(0.015625)"/>
        <path d="M 1228 531 
L 3431 531 
L 3431 0 
L 469 0 
L 469 531 
Q 828 903 1448 1529 
Q 2069 2156 2228 2338 
Q 2531 2678 2651 2914 
Q 2772 3150 2772 3378 
Q 2772 3750 2511 3984 
Q 2250 4219 1831 4219 
Q 1534 4219 1204 4116 
Q 875 4013 500 3803 
L 500 4441 
Q 881 4594 1212 4672 
Q 1544 4750 1819 4750 
Q 2544 4750 2975 4387 
Q 3406 4025 3406 3419 
Q 3406 3131 3298 2873 
Q 3191 2616 2906 2266 
Q 2828 2175 2409 1742 
Q 1991 1309 1228 531 
z
" id="DejaVuSans-32" transform="scale(0.015625)"/>
       </defs>
       <use xlink:href="#DejaVuSans-30"/>
       <use x="63.623047" xlink:href="#DejaVuSans-2e"/>
       <use x="95.410156" xlink:href="#DejaVuSans-32"/>
      </g>
     </g>
    </g>
    <g id="xtick_2">
     <g id="line2d_2">
      <g>
       <use style="stroke:#000000;stroke-width:0.8;" x="116.86946" xlink:href="#m083428c10c" y="348.478125"/>
      </g>
     </g>
     <g id="text_2">
      <!-- 0.3 -->
      <g transform="translate(108.917898 363.076563)scale(0.1 -0.1)">
       <defs>
        <path d="M 2597 2516 
Q 3050 2419 3304 2112 
Q 3559 1806 3559 1356 
Q 3559 666 3084 287 
Q 2609 -91 1734 -91 
Q 1441 -91 1130 -33 
Q 819 25 488 141 
L 488 750 
Q 750 597 1062 519 
Q 1375 441 1716 441 
Q 2309 441 2620 675 
Q 2931 909 2931 1356 
Q 2931 1769 2642 2001 
Q 2353 2234 1838 2234 
L 1294 2234 
L 1294 2753 
L 1863 2753 
Q 2328 2753 2575 2939 
Q 2822 3125 2822 3475 
Q 2822 3834 2567 4026 
Q 2313 4219 1838 4219 
Q 1578 4219 1281 4162 
Q 984 4106 628 3988 
L 628 4550 
Q 988 4650 1302 4700 
Q 1616 4750 1894 4750 
Q 2613 4750 3031 4423 
Q 3450 4097 3450 3541 
Q 3450 3153 3228 2886 
Q 3006 2619 2597 2516 
z
" id="DejaVuSans-33" transform="scale(0.015625)"/>
       </defs>
       <use xlink:href="#DejaVuSans-30"/>
       <use x="63.623047" xlink:href="#DejaVuSans-2e"/>
       <use x="95.410156" xlink:href="#DejaVuSans-33"/>
      </g>
     </g>
    </g>
    <g id="xtick_3">
     <g id="line2d_3">
      <g>
       <use style="stroke:#000000;stroke-width:0.8;" x="184.505824" xlink:href="#m083428c10c" y="348.478125"/>
      </g>
     </g>
     <g id="text_3">
      <!-- 0.4 -->
      <g transform="translate(176.554261 363.076563)scale(0.1 -0.1)">
       <defs>
        <path d="M 2419 4116 
L 825 1625 
L 2419 1625 
L 2419 4116 
z
M 2253 4666 
L 3047 4666 
L 3047 1625 
L 3713 1625 
L 3713 1100 
L 3047 1100 
L 3047 0 
L 2419 0 
L 2419 1100 
L 313 1100 
L 313 1709 
L 2253 4666 
z
" id="DejaVuSans-34" transform="scale(0.015625)"/>
       </defs>
       <use xlink:href="#DejaVuSans-30"/>
       <use x="63.623047" xlink:href="#DejaVuSans-2e"/>
       <use x="95.410156" xlink:href="#DejaVuSans-34"/>
      </g>
     </g>
    </g>
    <g id="xtick_4">
     <g id="line2d_4">
      <g>
       <use style="stroke:#000000;stroke-width:0.8;" x="252.142187" xlink:href="#m083428c10c" y="348.478125"/>
      </g>
     </g>
     <g id="text_4">
      <!-- 0.5 -->
      <g transform="translate(244.190625 363.076563)scale(0.1 -0.1)">
       <defs>
        <path d="M 691 4666 
L 3169 4666 
L 3169 4134 
L 1269 4134 
L 1269 2991 
Q 1406 3038 1543 3061 
Q 1681 3084 1819 3084 
Q 2600 3084 3056 2656 
Q 3513 2228 3513 1497 
Q 3513 744 3044 326 
Q 2575 -91 1722 -91 
Q 1428 -91 1123 -41 
Q 819 9 494 109 
L 494 744 
Q 775 591 1075 516 
Q 1375 441 1709 441 
Q 2250 441 2565 725 
Q 2881 1009 2881 1497 
Q 2881 1984 2565 2268 
Q 2250 2553 1709 2553 
Q 1456 2553 1204 2497 
Q 953 2441 691 2322 
L 691 4666 
z
" id="DejaVuSans-35" transform="scale(0.015625)"/>
       </defs>
       <use xlink:href="#DejaVuSans-30"/>
       <use x="63.623047" xlink:href="#DejaVuSans-2e"/>
       <use x="95.410156" xlink:href="#DejaVuSans-35"/>
      </g>
     </g>
    </g>
    <g id="xtick_5">
     <g id="line2d_5">
      <g>
       <use style="stroke:#000000;stroke-width:0.8;" x="319.778551" xlink:href="#m083428c10c" y="348.478125"/>
      </g>
     </g>
     <g id="text_5">
      <!-- 0.6 -->
      <g transform="translate(311.826989 363.076563)scale(0.1 -0.1)">
       <defs>
        <path d="M 2113 2584 
Q 1688 2584 1439 2293 
Q 1191 2003 1191 1497 
Q 1191 994 1439 701 
Q 1688 409 2113 409 
Q 2538 409 2786 701 
Q 3034 994 3034 1497 
Q 3034 2003 2786 2293 
Q 2538 2584 2113 2584 
z
M 3366 4563 
L 3366 3988 
Q 3128 4100 2886 4159 
Q 2644 4219 2406 4219 
Q 1781 4219 1451 3797 
Q 1122 3375 1075 2522 
Q 1259 2794 1537 2939 
Q 1816 3084 2150 3084 
Q 2853 3084 3261 2657 
Q 3669 2231 3669 1497 
Q 3669 778 3244 343 
Q 2819 -91 2113 -91 
Q 1303 -91 875 529 
Q 447 1150 447 2328 
Q 447 3434 972 4092 
Q 1497 4750 2381 4750 
Q 2619 4750 2861 4703 
Q 3103 4656 3366 4563 
z
" id="DejaVuSans-36" transform="scale(0.015625)"/>
       </defs>
       <use xlink:href="#DejaVuSans-30"/>
       <use x="63.623047" xlink:href="#DejaVuSans-2e"/>
       <use x="95.410156" xlink:href="#DejaVuSans-36"/>
      </g>
     </g>
    </g>
    <g id="xtick_6">
     <g id="line2d_6">
      <g>
       <use style="stroke:#000000;stroke-width:0.8;" x="387.414915" xlink:href="#m083428c10c" y="348.478125"/>
      </g>
     </g>
     <g id="text_6">
      <!-- 0.7 -->
      <g transform="translate(379.463352 363.076563)scale(0.1 -0.1)">
       <defs>
        <path d="M 525 4666 
L 3525 4666 
L 3525 4397 
L 1831 0 
L 1172 0 
L 2766 4134 
L 525 4134 
L 525 4666 
z
" id="DejaVuSans-37" transform="scale(0.015625)"/>
       </defs>
       <use xlink:href="#DejaVuSans-30"/>
       <use x="63.623047" xlink:href="#DejaVuSans-2e"/>
       <use x="95.410156" xlink:href="#DejaVuSans-37"/>
      </g>
     </g>
    </g>
    <g id="xtick_7">
     <g id="line2d_7">
      <g>
       <use style="stroke:#000000;stroke-width:0.8;" x="455.051278" xlink:href="#m083428c10c" y="348.478125"/>
      </g>
     </g>
     <g id="text_7">
      <!-- 0.8 -->
      <g transform="translate(447.099716 363.076563)scale(0.1 -0.1)">
       <defs>
        <path d="M 2034 2216 
Q 1584 2216 1326 1975 
Q 1069 1734 1069 1313 
Q 1069 891 1326 650 
Q 1584 409 2034 409 
Q 2484 409 2743 651 
Q 3003 894 3003 1313 
Q 3003 1734 2745 1975 
Q 2488 2216 2034 2216 
z
M 1403 2484 
Q 997 2584 770 2862 
Q 544 3141 544 3541 
Q 544 4100 942 4425 
Q 1341 4750 2034 4750 
Q 2731 4750 3128 4425 
Q 3525 4100 3525 3541 
Q 3525 3141 3298 2862 
Q 3072 2584 2669 2484 
Q 3125 2378 3379 2068 
Q 3634 1759 3634 1313 
Q 3634 634 3220 271 
Q 2806 -91 2034 -91 
Q 1263 -91 848 271 
Q 434 634 434 1313 
Q 434 1759 690 2068 
Q 947 2378 1403 2484 
z
M 1172 3481 
Q 1172 3119 1398 2916 
Q 1625 2713 2034 2713 
Q 2441 2713 2670 2916 
Q 2900 3119 2900 3481 
Q 2900 3844 2670 4047 
Q 2441 4250 2034 4250 
Q 1625 4250 1398 4047 
Q 1172 3844 1172 3481 
z
" id="DejaVuSans-38" transform="scale(0.015625)"/>
       </defs>
       <use xlink:href="#DejaVuSans-30"/>
       <use x="63.623047" xlink:href="#DejaVuSans-2e"/>
       <use x="95.410156" xlink:href="#DejaVuSans-38"/>
      </g>
     </g>
    </g>
   </g>
   <g id="matplotlib.axis_2">
    <g id="ytick_1">
     <g id="line2d_8">
      <defs>
       <path d="M 0 0 
L -3.5 0 
" id="me58eb0e177" style="stroke:#000000;stroke-width:0.8;"/>
      </defs>
      <g>
       <use style="stroke:#000000;stroke-width:0.8;" x="28.942188" xlink:href="#me58eb0e177" y="305.434711"/>
      </g>
     </g>
     <g id="text_8">
      <!-- −2 -->
      <g transform="translate(7.2 309.23393)scale(0.1 -0.1)">
       <defs>
        <path d="M 678 2272 
L 4684 2272 
L 4684 1741 
L 678 1741 
L 678 2272 
z
" id="DejaVuSans-2212" transform="scale(0.015625)"/>
       </defs>
       <use xlink:href="#DejaVuSans-2212"/>
       <use x="83.789062" xlink:href="#DejaVuSans-32"/>
      </g>
     </g>
    </g>
    <g id="ytick_2">
     <g id="line2d_9">
      <g>
       <use style="stroke:#000000;stroke-width:0.8;" x="28.942188" xlink:href="#me58eb0e177" y="252.208792"/>
      </g>
     </g>
     <g id="text_9">
      <!-- −1 -->
      <g transform="translate(7.2 256.008011)scale(0.1 -0.1)">
       <defs>
        <path d="M 794 531 
L 1825 531 
L 1825 4091 
L 703 3866 
L 703 4441 
L 1819 4666 
L 2450 4666 
L 2450 531 
L 3481 531 
L 3481 0 
L 794 0 
L 794 531 
z
" id="DejaVuSans-31" transform="scale(0.015625)"/>
       </defs>
       <use xlink:href="#DejaVuSans-2212"/>
       <use x="83.789062" xlink:href="#DejaVuSans-31"/>
      </g>
     </g>
    </g>
    <g id="ytick_3">
     <g id="line2d_10">
      <g>
       <use style="stroke:#000000;stroke-width:0.8;" x="28.942188" xlink:href="#me58eb0e177" y="198.982873"/>
      </g>
     </g>
     <g id="text_10">
      <!-- 0 -->
      <g transform="translate(15.579688 202.782092)scale(0.1 -0.1)">
       <use xlink:href="#DejaVuSans-30"/>
      </g>
     </g>
    </g>
    <g id="ytick_4">
     <g id="line2d_11">
      <g>
       <use style="stroke:#000000;stroke-width:0.8;" x="28.942188" xlink:href="#me58eb0e177" y="145.756954"/>
      </g>
     </g>
     <g id="text_11">
      <!-- 1 -->
      <g transform="translate(15.579688 149.556172)scale(0.1 -0.1)">
       <use xlink:href="#DejaVuSans-31"/>
      </g>
     </g>
    </g>
    <g id="ytick_5">
     <g id="line2d_12">
      <g>
       <use style="stroke:#000000;stroke-width:0.8;" x="28.942188" xlink:href="#me58eb0e177" y="92.531035"/>
      </g>
     </g>
     <g id="text_12">
      <!-- 2 -->
      <g transform="translate(15.579688 96.330253)scale(0.1 -0.1)">
       <use xlink:href="#DejaVuSans-32"/>
      </g>
     </g>
    </g>
    <g id="ytick_6">
     <g id="line2d_13">
      <g>
       <use style="stroke:#000000;stroke-width:0.8;" x="28.942188" xlink:href="#me58eb0e177" y="39.305115"/>
      </g>
     </g>
     <g id="text_13">
      <!-- 3 -->
      <g transform="translate(15.579688 43.104334)scale(0.1 -0.1)">
       <use xlink:href="#DejaVuSans-33"/>
      </g>
     </g>
    </g>
   </g>
   <g id="line2d_14">
    <path clip-path="url(#pa537d1530c)" d="M 49.233097 329.345988 
L 116.86946 333.035806 
L 184.505824 333.482773 
L 252.142187 333.459812 
L 319.778551 332.876492 
L 387.414915 332.817045 
L 455.051278 333.65267 
" style="fill:none;stroke:#f28e2c;stroke-linecap:square;stroke-width:3;"/>
    <defs>
     <path d="M 0 6 
C 1.591219 6 3.117479 5.367802 4.242641 4.242641 
C 5.367802 3.117479 6 1.591219 6 0 
C 6 -1.591219 5.367802 -3.117479 4.242641 -4.242641 
C 3.117479 -5.367802 1.591219 -6 0 -6 
C -1.591219 -6 -3.117479 -5.367802 -4.242641 -4.242641 
C -5.367802 -3.117479 -6 -1.591219 -6 0 
C -6 1.591219 -5.367802 3.117479 -4.242641 4.242641 
C -3.117479 5.367802 -1.591219 6 0 6 
z
" id="m1744d4232f" style="stroke:#f28e2c;"/>
    </defs>
    <g clip-path="url(#pa537d1530c)">
     <use style="fill:#f28e2c;stroke:#f28e2c;" x="49.233097" xlink:href="#m1744d4232f" y="329.345988"/>
     <use style="fill:#f28e2c;stroke:#f28e2c;" x="116.86946" xlink:href="#m1744d4232f" y="333.035806"/>
     <use style="fill:#f28e2c;stroke:#f28e2c;" x="184.505824" xlink:href="#m1744d4232f" y="333.482773"/>
     <use style="fill:#f28e2c;stroke:#f28e2c;" x="252.142187" xlink:href="#m1744d4232f" y="333.459812"/>
     <use style="fill:#f28e2c;stroke:#f28e2c;" x="319.778551" xlink:href="#m1744d4232f" y="332.876492"/>
     <use style="fill:#f28e2c;stroke:#f28e2c;" x="387.414915" xlink:href="#m1744d4232f" y="332.817045"/>
     <use style="fill:#f28e2c;stroke:#f28e2c;" x="455.051278" xlink:href="#m1744d4232f" y="333.65267"/>
    </g>
   </g>
   <g id="line2d_15">
    <path clip-path="url(#pa537d1530c)" d="M 49.233097 307.71695 
L 116.86946 313.376123 
L 184.505824 308.394737 
L 252.142187 307.004111 
L 319.778551 303.975639 
L 387.414915 306.522039 
L 455.051278 311.95614 
" style="fill:none;stroke:#e15659;stroke-linecap:square;stroke-width:3;"/>
    <defs>
     <path d="M -6 0 
L 6 0 
M 0 6 
L 0 -6 
" id="m1af8280c93" style="stroke:#e15659;"/>
    </defs>
    <g clip-path="url(#pa537d1530c)">
     <use style="fill:#e15659;stroke:#e15659;" x="49.233097" xlink:href="#m1af8280c93" y="307.71695"/>
     <use style="fill:#e15659;stroke:#e15659;" x="116.86946" xlink:href="#m1af8280c93" y="313.376123"/>
     <use style="fill:#e15659;stroke:#e15659;" x="184.505824" xlink:href="#m1af8280c93" y="308.394737"/>
     <use style="fill:#e15659;stroke:#e15659;" x="252.142187" xlink:href="#m1af8280c93" y="307.004111"/>
     <use style="fill:#e15659;stroke:#e15659;" x="319.778551" xlink:href="#m1af8280c93" y="303.975639"/>
     <use style="fill:#e15659;stroke:#e15659;" x="387.414915" xlink:href="#m1af8280c93" y="306.522039"/>
     <use style="fill:#e15659;stroke:#e15659;" x="455.051278" xlink:href="#m1af8280c93" y="311.95614"/>
    </g>
   </g>
   <g id="line2d_16">
    <path clip-path="url(#pa537d1530c)" d="M 49.233097 110.127688 
L 116.86946 304.490331 
L 184.505824 309.294743 
L 252.142187 308.760082 
L 319.778551 306.221037 
L 387.414915 302.579816 
L 455.051278 307.198967 
" style="fill:none;stroke:#59a14f;stroke-linecap:square;stroke-width:3;"/>
    <defs>
     <path d="M 0 -6 
L -6 6 
L 6 6 
z
" id="m2828c8da77" style="stroke:#59a14f;stroke-linejoin:miter;"/>
    </defs>
    <g clip-path="url(#pa537d1530c)">
     <use style="fill:#59a14f;stroke:#59a14f;stroke-linejoin:miter;" x="49.233097" xlink:href="#m2828c8da77" y="110.127688"/>
     <use style="fill:#59a14f;stroke:#59a14f;stroke-linejoin:miter;" x="116.86946" xlink:href="#m2828c8da77" y="304.490331"/>
     <use style="fill:#59a14f;stroke:#59a14f;stroke-linejoin:miter;" x="184.505824" xlink:href="#m2828c8da77" y="309.294743"/>
     <use style="fill:#59a14f;stroke:#59a14f;stroke-linejoin:miter;" x="252.142187" xlink:href="#m2828c8da77" y="308.760082"/>
     <use style="fill:#59a14f;stroke:#59a14f;stroke-linejoin:miter;" x="319.778551" xlink:href="#m2828c8da77" y="306.221037"/>
     <use style="fill:#59a14f;stroke:#59a14f;stroke-linejoin:miter;" x="387.414915" xlink:href="#m2828c8da77" y="302.579816"/>
     <use style="fill:#59a14f;stroke:#59a14f;stroke-linejoin:miter;" x="455.051278" xlink:href="#m2828c8da77" y="307.198967"/>
    </g>
   </g>
   <g id="line2d_17">
    <path clip-path="url(#pa537d1530c)" d="M 49.233097 298.683907 
L 116.86946 298.514434 
L 184.505824 300.21906 
L 252.142187 300.984036 
L 319.778551 298.051511 
L 387.414915 297.969172 
L 455.051278 299.046276 
" style="fill:none;stroke:#76b7af;stroke-linecap:square;stroke-width:3;"/>
    <defs>
     <path d="M -6 6 
L 6 -6 
M -6 -6 
L 6 6 
" id="m042a2d69a3" style="stroke:#76b7af;"/>
    </defs>
    <g clip-path="url(#pa537d1530c)">
     <use style="fill:#76b7af;stroke:#76b7af;" x="49.233097" xlink:href="#m042a2d69a3" y="298.683907"/>
     <use style="fill:#76b7af;stroke:#76b7af;" x="116.86946" xlink:href="#m042a2d69a3" y="298.514434"/>
     <use style="fill:#76b7af;stroke:#76b7af;" x="184.505824" xlink:href="#m042a2d69a3" y="300.21906"/>
     <use style="fill:#76b7af;stroke:#76b7af;" x="252.142187" xlink:href="#m042a2d69a3" y="300.984036"/>
     <use style="fill:#76b7af;stroke:#76b7af;" x="319.778551" xlink:href="#m042a2d69a3" y="298.051511"/>
     <use style="fill:#76b7af;stroke:#76b7af;" x="387.414915" xlink:href="#m042a2d69a3" y="297.969172"/>
     <use style="fill:#76b7af;stroke:#76b7af;" x="455.051278" xlink:href="#m042a2d69a3" y="299.046276"/>
    </g>
   </g>
   <g id="line2d_18">
    <path clip-path="url(#pa537d1530c)" d="M 49.233097 37.14358 
L 116.86946 332.493031 
L 184.505824 332.174489 
L 252.142187 327.197296 
L 319.778551 301.767601 
L 387.414915 306.459997 
L 455.051278 332.573974 
" style="fill:none;stroke:#4e79a6;stroke-linecap:square;stroke-width:3;"/>
    <defs>
     <path d="M 0 -6 
L -1.347084 -1.854102 
L -5.706339 -1.854102 
L -2.179628 0.708204 
L -3.526712 4.854102 
L -0 2.291796 
L 3.526712 4.854102 
L 2.179628 0.708204 
L 5.706339 -1.854102 
L 1.347084 -1.854102 
z
" id="mb7b2c77c44" style="stroke:#4e79a6;stroke-linejoin:bevel;"/>
    </defs>
    <g clip-path="url(#pa537d1530c)">
     <use style="fill:#4e79a6;stroke:#4e79a6;stroke-linejoin:bevel;" x="49.233097" xlink:href="#mb7b2c77c44" y="37.14358"/>
     <use style="fill:#4e79a6;stroke:#4e79a6;stroke-linejoin:bevel;" x="116.86946" xlink:href="#mb7b2c77c44" y="332.493031"/>
     <use style="fill:#4e79a6;stroke:#4e79a6;stroke-linejoin:bevel;" x="184.505824" xlink:href="#mb7b2c77c44" y="332.174489"/>
     <use style="fill:#4e79a6;stroke:#4e79a6;stroke-linejoin:bevel;" x="252.142187" xlink:href="#mb7b2c77c44" y="327.197296"/>
     <use style="fill:#4e79a6;stroke:#4e79a6;stroke-linejoin:bevel;" x="319.778551" xlink:href="#mb7b2c77c44" y="301.767601"/>
     <use style="fill:#4e79a6;stroke:#4e79a6;stroke-linejoin:bevel;" x="387.414915" xlink:href="#mb7b2c77c44" y="306.459997"/>
     <use style="fill:#4e79a6;stroke:#4e79a6;stroke-linejoin:bevel;" x="455.051278" xlink:href="#mb7b2c77c44" y="332.573974"/>
    </g>
   </g>
   <g id="patch_3">
    <path d="M 28.942188 348.478125 
L 28.942188 22.318125 
" style="fill:none;stroke:#000000;stroke-linecap:square;stroke-linejoin:miter;stroke-width:0.8;"/>
   </g>
   <g id="patch_4">
    <path d="M 475.342187 348.478125 
L 475.342187 22.318125 
" style="fill:none;stroke:#000000;stroke-linecap:square;stroke-linejoin:miter;stroke-width:0.8;"/>
   </g>
   <g id="patch_5">
    <path d="M 28.942188 348.478125 
L 475.342187 348.478125 
" style="fill:none;stroke:#000000;stroke-linecap:square;stroke-linejoin:miter;stroke-width:0.8;"/>
   </g>
   <g id="patch_6">
    <path d="M 28.942188 22.318125 
L 475.342187 22.318125 
" style="fill:none;stroke:#000000;stroke-linecap:square;stroke-linejoin:miter;stroke-width:0.8;"/>
   </g>
   <g id="text_14">
    <!-- title -->
    <g transform="translate(240.412187 16.318125)scale(0.12 -0.12)">
     <defs>
      <path d="M 1172 4494 
L 1172 3500 
L 2356 3500 
L 2356 3053 
L 1172 3053 
L 1172 1153 
Q 1172 725 1289 603 
Q 1406 481 1766 481 
L 2356 481 
L 2356 0 
L 1766 0 
Q 1100 0 847 248 
Q 594 497 594 1153 
L 594 3053 
L 172 3053 
L 172 3500 
L 594 3500 
L 594 4494 
L 1172 4494 
z
" id="DejaVuSans-74" transform="scale(0.015625)"/>
      <path d="M 603 3500 
L 1178 3500 
L 1178 0 
L 603 0 
L 603 3500 
z
M 603 4863 
L 1178 4863 
L 1178 4134 
L 603 4134 
L 603 4863 
z
" id="DejaVuSans-69" transform="scale(0.015625)"/>
      <path d="M 603 4863 
L 1178 4863 
L 1178 0 
L 603 0 
L 603 4863 
z
" id="DejaVuSans-6c" transform="scale(0.015625)"/>
      <path d="M 3597 1894 
L 3597 1613 
L 953 1613 
Q 991 1019 1311 708 
Q 1631 397 2203 397 
Q 2534 397 2845 478 
Q 3156 559 3463 722 
L 3463 178 
Q 3153 47 2828 -22 
Q 2503 -91 2169 -91 
Q 1331 -91 842 396 
Q 353 884 353 1716 
Q 353 2575 817 3079 
Q 1281 3584 2069 3584 
Q 2775 3584 3186 3129 
Q 3597 2675 3597 1894 
z
M 3022 2063 
Q 3016 2534 2758 2815 
Q 2500 3097 2075 3097 
Q 1594 3097 1305 2825 
Q 1016 2553 972 2059 
L 3022 2063 
z
" id="DejaVuSans-65" transform="scale(0.015625)"/>
     </defs>
     <use xlink:href="#DejaVuSans-74"/>
     <use x="39.208984" xlink:href="#DejaVuSans-69"/>
     <use x="66.992188" xlink:href="#DejaVuSans-74"/>
     <use x="106.201172" xlink:href="#DejaVuSans-6c"/>
     <use x="133.984375" xlink:href="#DejaVuSans-65"/>
    </g>
   </g>
  </g>
 </g>
 <defs>
  <clipPath id="pa537d1530c">
   <rect height="326.16" width="446.4" x="28.942188" y="22.318125"/>
  </clipPath>
 </defs>
</svg>
