<?xml version="1.0" encoding="utf-8" standalone="no"?>
<!DOCTYPE svg PUBLIC "-//W3C//DTD SVG 1.1//EN"
  "http://www.w3.org/Graphics/SVG/1.1/DTD/svg11.dtd">
<svg height="372.35625pt" version="1.1" viewBox="0 0 492.082813 372.35625" width="492.082813pt" xmlns="http://www.w3.org/2000/svg" xmlns:xlink="http://www.w3.org/1999/xlink">
 <metadata>
  <rdf:RDF xmlns:cc="http://creativecommons.org/ns#" xmlns:dc="http://purl.org/dc/elements/1.1/" xmlns:rdf="http://www.w3.org/1999/02/22-rdf-syntax-ns#">
   <cc:Work>
    <dc:type rdf:resource="http://purl.org/dc/dcmitype/StillImage"/>
    <dc:date>2022-12-11T01:17:57.203505</dc:date>
    <dc:format>image/svg+xml</dc:format>
    <dc:creator>
     <cc:Agent>
      <dc:title>Matplotlib v3.4.2, https://matplotlib.org/</dc:title>
     </cc:Agent>
    </dc:creator>
   </cc:Work>
  </rdf:RDF>
 </metadata>
 <defs>
  <style type="text/css">*{stroke-linecap:butt;stroke-linejoin:round;}</style>
 </defs>
 <g id="figure_1">
  <g id="patch_1">
   <path d="M 0 372.35625 
L 492.082813 372.35625 
L 492.082813 0 
L 0 0 
z
" style="fill:none;"/>
  </g>
  <g id="axes_1">
   <g id="patch_2">
    <path d="M 38.482813 348.478125 
L 484.882812 348.478125 
L 484.882812 22.318125 
L 38.482813 22.318125 
z
" style="fill:#ffffff;"/>
   </g>
   <g id="matplotlib.axis_1">
    <g id="xtick_1">
     <g id="line2d_1">
      <defs>
       <path d="M 0 0 
L 0 3.5 
" id="mfd46c4fd54" style="stroke:#000000;stroke-width:0.8;"/>
      </defs>
      <g>
       <use style="stroke:#000000;stroke-width:0.8;" x="58.773722" xlink:href="#mfd46c4fd54" y="348.478125"/>
      </g>
     </g>
     <g id="text_1">
      <!-- 9 -->
      <g transform="translate(55.592472 363.076563)scale(0.1 -0.1)">
       <defs>
        <path d="M 703 97 
L 703 672 
Q 941 559 1184 500 
Q 1428 441 1663 441 
Q 2288 441 2617 861 
Q 2947 1281 2994 2138 
Q 2813 1869 2534 1725 
Q 2256 1581 1919 1581 
Q 1219 1581 811 2004 
Q 403 2428 403 3163 
Q 403 3881 828 4315 
Q 1253 4750 1959 4750 
Q 2769 4750 3195 4129 
Q 3622 3509 3622 2328 
Q 3622 1225 3098 567 
Q 2575 -91 1691 -91 
Q 1453 -91 1209 -44 
Q 966 3 703 97 
z
M 1959 2075 
Q 2384 2075 2632 2365 
Q 2881 2656 2881 3163 
Q 2881 3666 2632 3958 
Q 2384 4250 1959 4250 
Q 1534 4250 1286 3958 
Q 1038 3666 1038 3163 
Q 1038 2656 1286 2365 
Q 1534 2075 1959 2075 
z
" id="DejaVuSans-39" transform="scale(0.015625)"/>
       </defs>
       <use xlink:href="#DejaVuSans-39"/>
      </g>
     </g>
    </g>
    <g id="xtick_2">
     <g id="line2d_2">
      <g>
       <use style="stroke:#000000;stroke-width:0.8;" x="126.410085" xlink:href="#mfd46c4fd54" y="348.478125"/>
      </g>
     </g>
     <g id="text_2">
      <!-- 10 -->
      <g transform="translate(120.047585 363.076563)scale(0.1 -0.1)">
       <defs>
        <path d="M 794 531 
L 1825 531 
L 1825 4091 
L 703 3866 
L 703 4441 
L 1819 4666 
L 2450 4666 
L 2450 531 
L 3481 531 
L 3481 0 
L 794 0 
L 794 531 
z
" id="DejaVuSans-31" transform="scale(0.015625)"/>
        <path d="M 2034 4250 
Q 1547 4250 1301 3770 
Q 1056 3291 1056 2328 
Q 1056 1369 1301 889 
Q 1547 409 2034 409 
Q 2525 409 2770 889 
Q 3016 1369 3016 2328 
Q 3016 3291 2770 3770 
Q 2525 4250 2034 4250 
z
M 2034 4750 
Q 2819 4750 3233 4129 
Q 3647 3509 3647 2328 
Q 3647 1150 3233 529 
Q 2819 -91 2034 -91 
Q 1250 -91 836 529 
Q 422 1150 422 2328 
Q 422 3509 836 4129 
Q 1250 4750 2034 4750 
z
" id="DejaVuSans-30" transform="scale(0.015625)"/>
       </defs>
       <use xlink:href="#DejaVuSans-31"/>
       <use x="63.623047" xlink:href="#DejaVuSans-30"/>
      </g>
     </g>
    </g>
    <g id="xtick_3">
     <g id="line2d_3">
      <g>
       <use style="stroke:#000000;stroke-width:0.8;" x="194.046449" xlink:href="#mfd46c4fd54" y="348.478125"/>
      </g>
     </g>
     <g id="text_3">
      <!-- 11 -->
      <g transform="translate(187.683949 363.076563)scale(0.1 -0.1)">
       <use xlink:href="#DejaVuSans-31"/>
       <use x="63.623047" xlink:href="#DejaVuSans-31"/>
      </g>
     </g>
    </g>
    <g id="xtick_4">
     <g id="line2d_4">
      <g>
       <use style="stroke:#000000;stroke-width:0.8;" x="261.682813" xlink:href="#mfd46c4fd54" y="348.478125"/>
      </g>
     </g>
     <g id="text_4">
      <!-- 12 -->
      <g transform="translate(255.320313 363.076563)scale(0.1 -0.1)">
       <defs>
        <path d="M 1228 531 
L 3431 531 
L 3431 0 
L 469 0 
L 469 531 
Q 828 903 1448 1529 
Q 2069 2156 2228 2338 
Q 2531 2678 2651 2914 
Q 2772 3150 2772 3378 
Q 2772 3750 2511 3984 
Q 2250 4219 1831 4219 
Q 1534 4219 1204 4116 
Q 875 4013 500 3803 
L 500 4441 
Q 881 4594 1212 4672 
Q 1544 4750 1819 4750 
Q 2544 4750 2975 4387 
Q 3406 4025 3406 3419 
Q 3406 3131 3298 2873 
Q 3191 2616 2906 2266 
Q 2828 2175 2409 1742 
Q 1991 1309 1228 531 
z
" id="DejaVuSans-32" transform="scale(0.015625)"/>
       </defs>
       <use xlink:href="#DejaVuSans-31"/>
       <use x="63.623047" xlink:href="#DejaVuSans-32"/>
      </g>
     </g>
    </g>
    <g id="xtick_5">
     <g id="line2d_5">
      <g>
       <use style="stroke:#000000;stroke-width:0.8;" x="329.319176" xlink:href="#mfd46c4fd54" y="348.478125"/>
      </g>
     </g>
     <g id="text_5">
      <!-- 13 -->
      <g transform="translate(322.956676 363.076563)scale(0.1 -0.1)">
       <defs>
        <path d="M 2597 2516 
Q 3050 2419 3304 2112 
Q 3559 1806 3559 1356 
Q 3559 666 3084 287 
Q 2609 -91 1734 -91 
Q 1441 -91 1130 -33 
Q 819 25 488 141 
L 488 750 
Q 750 597 1062 519 
Q 1375 441 1716 441 
Q 2309 441 2620 675 
Q 2931 909 2931 1356 
Q 2931 1769 2642 2001 
Q 2353 2234 1838 2234 
L 1294 2234 
L 1294 2753 
L 1863 2753 
Q 2328 2753 2575 2939 
Q 2822 3125 2822 3475 
Q 2822 3834 2567 4026 
Q 2313 4219 1838 4219 
Q 1578 4219 1281 4162 
Q 984 4106 628 3988 
L 628 4550 
Q 988 4650 1302 4700 
Q 1616 4750 1894 4750 
Q 2613 4750 3031 4423 
Q 3450 4097 3450 3541 
Q 3450 3153 3228 2886 
Q 3006 2619 2597 2516 
z
" id="DejaVuSans-33" transform="scale(0.015625)"/>
       </defs>
       <use xlink:href="#DejaVuSans-31"/>
       <use x="63.623047" xlink:href="#DejaVuSans-33"/>
      </g>
     </g>
    </g>
    <g id="xtick_6">
     <g id="line2d_6">
      <g>
       <use style="stroke:#000000;stroke-width:0.8;" x="396.95554" xlink:href="#mfd46c4fd54" y="348.478125"/>
      </g>
     </g>
     <g id="text_6">
      <!-- 14 -->
      <g transform="translate(390.59304 363.076563)scale(0.1 -0.1)">
       <defs>
        <path d="M 2419 4116 
L 825 1625 
L 2419 1625 
L 2419 4116 
z
M 2253 4666 
L 3047 4666 
L 3047 1625 
L 3713 1625 
L 3713 1100 
L 3047 1100 
L 3047 0 
L 2419 0 
L 2419 1100 
L 313 1100 
L 313 1709 
L 2253 4666 
z
" id="DejaVuSans-34" transform="scale(0.015625)"/>
       </defs>
       <use xlink:href="#DejaVuSans-31"/>
       <use x="63.623047" xlink:href="#DejaVuSans-34"/>
      </g>
     </g>
    </g>
    <g id="xtick_7">
     <g id="line2d_7">
      <g>
       <use style="stroke:#000000;stroke-width:0.8;" x="464.591903" xlink:href="#mfd46c4fd54" y="348.478125"/>
      </g>
     </g>
     <g id="text_7">
      <!-- 15 -->
      <g transform="translate(458.229403 363.076563)scale(0.1 -0.1)">
       <defs>
        <path d="M 691 4666 
L 3169 4666 
L 3169 4134 
L 1269 4134 
L 1269 2991 
Q 1406 3038 1543 3061 
Q 1681 3084 1819 3084 
Q 2600 3084 3056 2656 
Q 3513 2228 3513 1497 
Q 3513 744 3044 326 
Q 2575 -91 1722 -91 
Q 1428 -91 1123 -41 
Q 819 9 494 109 
L 494 744 
Q 775 591 1075 516 
Q 1375 441 1709 441 
Q 2250 441 2565 725 
Q 2881 1009 2881 1497 
Q 2881 1984 2565 2268 
Q 2250 2553 1709 2553 
Q 1456 2553 1204 2497 
Q 953 2441 691 2322 
L 691 4666 
z
" id="DejaVuSans-35" transform="scale(0.015625)"/>
       </defs>
       <use xlink:href="#DejaVuSans-31"/>
       <use x="63.623047" xlink:href="#DejaVuSans-35"/>
      </g>
     </g>
    </g>
   </g>
   <g id="matplotlib.axis_2">
    <g id="ytick_1">
     <g id="line2d_8">
      <defs>
       <path d="M 0 0 
L -3.5 0 
" id="m6dd6d8b0e1" style="stroke:#000000;stroke-width:0.8;"/>
      </defs>
      <g>
       <use style="stroke:#000000;stroke-width:0.8;" x="38.482813" xlink:href="#m6dd6d8b0e1" y="322.298839"/>
      </g>
     </g>
     <g id="text_8">
      <!-- −2.5 -->
      <g transform="translate(7.2 326.098058)scale(0.1 -0.1)">
       <defs>
        <path d="M 678 2272 
L 4684 2272 
L 4684 1741 
L 678 1741 
L 678 2272 
z
" id="DejaVuSans-2212" transform="scale(0.015625)"/>
        <path d="M 684 794 
L 1344 794 
L 1344 0 
L 684 0 
L 684 794 
z
" id="DejaVuSans-2e" transform="scale(0.015625)"/>
       </defs>
       <use xlink:href="#DejaVuSans-2212"/>
       <use x="83.789062" xlink:href="#DejaVuSans-32"/>
       <use x="147.412109" xlink:href="#DejaVuSans-2e"/>
       <use x="179.199219" xlink:href="#DejaVuSans-35"/>
      </g>
     </g>
    </g>
    <g id="ytick_2">
     <g id="line2d_9">
      <g>
       <use style="stroke:#000000;stroke-width:0.8;" x="38.482813" xlink:href="#m6dd6d8b0e1" y="275.635136"/>
      </g>
     </g>
     <g id="text_9">
      <!-- −2.4 -->
      <g transform="translate(7.2 279.434355)scale(0.1 -0.1)">
       <use xlink:href="#DejaVuSans-2212"/>
       <use x="83.789062" xlink:href="#DejaVuSans-32"/>
       <use x="147.412109" xlink:href="#DejaVuSans-2e"/>
       <use x="179.199219" xlink:href="#DejaVuSans-34"/>
      </g>
     </g>
    </g>
    <g id="ytick_3">
     <g id="line2d_10">
      <g>
       <use style="stroke:#000000;stroke-width:0.8;" x="38.482813" xlink:href="#m6dd6d8b0e1" y="228.971433"/>
      </g>
     </g>
     <g id="text_10">
      <!-- −2.3 -->
      <g transform="translate(7.2 232.770652)scale(0.1 -0.1)">
       <use xlink:href="#DejaVuSans-2212"/>
       <use x="83.789062" xlink:href="#DejaVuSans-32"/>
       <use x="147.412109" xlink:href="#DejaVuSans-2e"/>
       <use x="179.199219" xlink:href="#DejaVuSans-33"/>
      </g>
     </g>
    </g>
    <g id="ytick_4">
     <g id="line2d_11">
      <g>
       <use style="stroke:#000000;stroke-width:0.8;" x="38.482813" xlink:href="#m6dd6d8b0e1" y="182.30773"/>
      </g>
     </g>
     <g id="text_11">
      <!-- −2.2 -->
      <g transform="translate(7.2 186.106949)scale(0.1 -0.1)">
       <use xlink:href="#DejaVuSans-2212"/>
       <use x="83.789062" xlink:href="#DejaVuSans-32"/>
       <use x="147.412109" xlink:href="#DejaVuSans-2e"/>
       <use x="179.199219" xlink:href="#DejaVuSans-32"/>
      </g>
     </g>
    </g>
    <g id="ytick_5">
     <g id="line2d_12">
      <g>
       <use style="stroke:#000000;stroke-width:0.8;" x="38.482813" xlink:href="#m6dd6d8b0e1" y="135.644027"/>
      </g>
     </g>
     <g id="text_12">
      <!-- −2.1 -->
      <g transform="translate(7.2 139.443246)scale(0.1 -0.1)">
       <use xlink:href="#DejaVuSans-2212"/>
       <use x="83.789062" xlink:href="#DejaVuSans-32"/>
       <use x="147.412109" xlink:href="#DejaVuSans-2e"/>
       <use x="179.199219" xlink:href="#DejaVuSans-31"/>
      </g>
     </g>
    </g>
    <g id="ytick_6">
     <g id="line2d_13">
      <g>
       <use style="stroke:#000000;stroke-width:0.8;" x="38.482813" xlink:href="#m6dd6d8b0e1" y="88.980324"/>
      </g>
     </g>
     <g id="text_13">
      <!-- −2.0 -->
      <g transform="translate(7.2 92.779543)scale(0.1 -0.1)">
       <use xlink:href="#DejaVuSans-2212"/>
       <use x="83.789062" xlink:href="#DejaVuSans-32"/>
       <use x="147.412109" xlink:href="#DejaVuSans-2e"/>
       <use x="179.199219" xlink:href="#DejaVuSans-30"/>
      </g>
     </g>
    </g>
    <g id="ytick_7">
     <g id="line2d_14">
      <g>
       <use style="stroke:#000000;stroke-width:0.8;" x="38.482813" xlink:href="#m6dd6d8b0e1" y="42.316621"/>
      </g>
     </g>
     <g id="text_14">
      <!-- −1.9 -->
      <g transform="translate(7.2 46.11584)scale(0.1 -0.1)">
       <use xlink:href="#DejaVuSans-2212"/>
       <use x="83.789062" xlink:href="#DejaVuSans-31"/>
       <use x="147.412109" xlink:href="#DejaVuSans-2e"/>
       <use x="179.199219" xlink:href="#DejaVuSans-39"/>
      </g>
     </g>
    </g>
   </g>
   <g id="line2d_15">
    <path clip-path="url(#p4adbf3ae0c)" d="M 58.773722 332.695775 
L 126.410085 332.148779 
L 194.046449 332.465756 
L 261.682813 333.65267 
L 329.319176 329.393503 
L 396.95554 330.915275 
L 464.591903 322.25453 
" style="fill:none;stroke:#f28e2c;stroke-linecap:square;stroke-width:3;"/>
    <defs>
     <path d="M 0 6 
C 1.591219 6 3.117479 5.367802 4.242641 4.242641 
C 5.367802 3.117479 6 1.591219 6 0 
C 6 -1.591219 5.367802 -3.117479 4.242641 -4.242641 
C 3.117479 -5.367802 1.591219 -6 0 -6 
C -1.591219 -6 -3.117479 -5.367802 -4.242641 -4.242641 
C -5.367802 -3.117479 -6 -1.591219 -6 0 
C -6 1.591219 -5.367802 3.117479 -4.242641 4.242641 
C -3.117479 5.367802 -1.591219 6 0 6 
z
" id="m11395a7f33" style="stroke:#f28e2c;"/>
    </defs>
    <g clip-path="url(#p4adbf3ae0c)">
     <use style="fill:#f28e2c;stroke:#f28e2c;" x="58.773722" xlink:href="#m11395a7f33" y="332.695775"/>
     <use style="fill:#f28e2c;stroke:#f28e2c;" x="126.410085" xlink:href="#m11395a7f33" y="332.148779"/>
     <use style="fill:#f28e2c;stroke:#f28e2c;" x="194.046449" xlink:href="#m11395a7f33" y="332.465756"/>
     <use style="fill:#f28e2c;stroke:#f28e2c;" x="261.682813" xlink:href="#m11395a7f33" y="333.65267"/>
     <use style="fill:#f28e2c;stroke:#f28e2c;" x="329.319176" xlink:href="#m11395a7f33" y="329.393503"/>
     <use style="fill:#f28e2c;stroke:#f28e2c;" x="396.95554" xlink:href="#m11395a7f33" y="330.915275"/>
     <use style="fill:#f28e2c;stroke:#f28e2c;" x="464.591903" xlink:href="#m11395a7f33" y="322.25453"/>
    </g>
   </g>
   <g id="line2d_16">
    <path clip-path="url(#p4adbf3ae0c)" d="M 58.773722 116.0905 
L 126.410085 124.755626 
L 194.046449 114.501107 
L 261.682813 107.273857 
L 329.319176 114.079148 
L 396.95554 106.436315 
L 464.591903 129.351085 
" style="fill:none;stroke:#e15659;stroke-linecap:square;stroke-width:3;"/>
    <defs>
     <path d="M -6 0 
L 6 0 
M 0 6 
L 0 -6 
" id="mc482292a58" style="stroke:#e15659;"/>
    </defs>
    <g clip-path="url(#p4adbf3ae0c)">
     <use style="fill:#e15659;stroke:#e15659;" x="58.773722" xlink:href="#mc482292a58" y="116.0905"/>
     <use style="fill:#e15659;stroke:#e15659;" x="126.410085" xlink:href="#mc482292a58" y="124.755626"/>
     <use style="fill:#e15659;stroke:#e15659;" x="194.046449" xlink:href="#mc482292a58" y="114.501107"/>
     <use style="fill:#e15659;stroke:#e15659;" x="261.682813" xlink:href="#mc482292a58" y="107.273857"/>
     <use style="fill:#e15659;stroke:#e15659;" x="329.319176" xlink:href="#mc482292a58" y="114.079148"/>
     <use style="fill:#e15659;stroke:#e15659;" x="396.95554" xlink:href="#mc482292a58" y="106.436315"/>
     <use style="fill:#e15659;stroke:#e15659;" x="464.591903" xlink:href="#mc482292a58" y="129.351085"/>
    </g>
   </g>
   <g id="line2d_17">
    <path clip-path="url(#p4adbf3ae0c)" d="M 58.773722 122.086662 
L 126.410085 123.595696 
L 194.046449 124.049228 
L 261.682813 127.61684 
L 329.319176 124.179985 
L 396.95554 122.481837 
L 464.591903 92.333702 
" style="fill:none;stroke:#59a14f;stroke-linecap:square;stroke-width:3;"/>
    <defs>
     <path d="M 0 -6 
L -6 6 
L 6 6 
z
" id="m290e161a10" style="stroke:#59a14f;stroke-linejoin:miter;"/>
    </defs>
    <g clip-path="url(#p4adbf3ae0c)">
     <use style="fill:#59a14f;stroke:#59a14f;stroke-linejoin:miter;" x="58.773722" xlink:href="#m290e161a10" y="122.086662"/>
     <use style="fill:#59a14f;stroke:#59a14f;stroke-linejoin:miter;" x="126.410085" xlink:href="#m290e161a10" y="123.595696"/>
     <use style="fill:#59a14f;stroke:#59a14f;stroke-linejoin:miter;" x="194.046449" xlink:href="#m290e161a10" y="124.049228"/>
     <use style="fill:#59a14f;stroke:#59a14f;stroke-linejoin:miter;" x="261.682813" xlink:href="#m290e161a10" y="127.61684"/>
     <use style="fill:#59a14f;stroke:#59a14f;stroke-linejoin:miter;" x="329.319176" xlink:href="#m290e161a10" y="124.179985"/>
     <use style="fill:#59a14f;stroke:#59a14f;stroke-linejoin:miter;" x="396.95554" xlink:href="#m290e161a10" y="122.481837"/>
     <use style="fill:#59a14f;stroke:#59a14f;stroke-linejoin:miter;" x="464.591903" xlink:href="#m290e161a10" y="92.333702"/>
    </g>
   </g>
   <g id="line2d_18">
    <path clip-path="url(#p4adbf3ae0c)" d="M 58.773722 43.375554 
L 126.410085 51.08755 
L 194.046449 46.347073 
L 261.682813 47.034774 
L 329.319176 44.884871 
L 396.95554 46.849055 
L 464.591903 37.14358 
" style="fill:none;stroke:#76b7af;stroke-linecap:square;stroke-width:3;"/>
    <defs>
     <path d="M -6 6 
L 6 -6 
M -6 -6 
L 6 6 
" id="m838d118f15" style="stroke:#76b7af;"/>
    </defs>
    <g clip-path="url(#p4adbf3ae0c)">
     <use style="fill:#76b7af;stroke:#76b7af;" x="58.773722" xlink:href="#m838d118f15" y="43.375554"/>
     <use style="fill:#76b7af;stroke:#76b7af;" x="126.410085" xlink:href="#m838d118f15" y="51.08755"/>
     <use style="fill:#76b7af;stroke:#76b7af;" x="194.046449" xlink:href="#m838d118f15" y="46.347073"/>
     <use style="fill:#76b7af;stroke:#76b7af;" x="261.682813" xlink:href="#m838d118f15" y="47.034774"/>
     <use style="fill:#76b7af;stroke:#76b7af;" x="329.319176" xlink:href="#m838d118f15" y="44.884871"/>
     <use style="fill:#76b7af;stroke:#76b7af;" x="396.95554" xlink:href="#m838d118f15" y="46.849055"/>
     <use style="fill:#76b7af;stroke:#76b7af;" x="464.591903" xlink:href="#m838d118f15" y="37.14358"/>
    </g>
   </g>
   <g id="line2d_19">
    <path clip-path="url(#p4adbf3ae0c)" d="M 58.773722 321.776776 
L 126.410085 325.213318 
L 194.046449 324.603515 
L 261.682813 324.920205 
L 329.319176 321.72281 
L 396.95554 323.899953 
L 464.591903 324.073133 
" style="fill:none;stroke:#4e79a6;stroke-linecap:square;stroke-width:3;"/>
    <defs>
     <path d="M 0 -6 
L -1.347084 -1.854102 
L -5.706339 -1.854102 
L -2.179628 0.708204 
L -3.526712 4.854102 
L -0 2.291796 
L 3.526712 4.854102 
L 2.179628 0.708204 
L 5.706339 -1.854102 
L 1.347084 -1.854102 
z
" id="m00f2dcde53" style="stroke:#4e79a6;stroke-linejoin:bevel;"/>
    </defs>
    <g clip-path="url(#p4adbf3ae0c)">
     <use style="fill:#4e79a6;stroke:#4e79a6;stroke-linejoin:bevel;" x="58.773722" xlink:href="#m00f2dcde53" y="321.776776"/>
     <use style="fill:#4e79a6;stroke:#4e79a6;stroke-linejoin:bevel;" x="126.410085" xlink:href="#m00f2dcde53" y="325.213318"/>
     <use style="fill:#4e79a6;stroke:#4e79a6;stroke-linejoin:bevel;" x="194.046449" xlink:href="#m00f2dcde53" y="324.603515"/>
     <use style="fill:#4e79a6;stroke:#4e79a6;stroke-linejoin:bevel;" x="261.682813" xlink:href="#m00f2dcde53" y="324.920205"/>
     <use style="fill:#4e79a6;stroke:#4e79a6;stroke-linejoin:bevel;" x="329.319176" xlink:href="#m00f2dcde53" y="321.72281"/>
     <use style="fill:#4e79a6;stroke:#4e79a6;stroke-linejoin:bevel;" x="396.95554" xlink:href="#m00f2dcde53" y="323.899953"/>
     <use style="fill:#4e79a6;stroke:#4e79a6;stroke-linejoin:bevel;" x="464.591903" xlink:href="#m00f2dcde53" y="324.073133"/>
    </g>
   </g>
   <g id="patch_3">
    <path d="M 38.482813 348.478125 
L 38.482813 22.318125 
" style="fill:none;stroke:#000000;stroke-linecap:square;stroke-linejoin:miter;stroke-width:0.8;"/>
   </g>
   <g id="patch_4">
    <path d="M 484.882812 348.478125 
L 484.882812 22.318125 
" style="fill:none;stroke:#000000;stroke-linecap:square;stroke-linejoin:miter;stroke-width:0.8;"/>
   </g>
   <g id="patch_5">
    <path d="M 38.482813 348.478125 
L 484.882813 348.478125 
" style="fill:none;stroke:#000000;stroke-linecap:square;stroke-linejoin:miter;stroke-width:0.8;"/>
   </g>
   <g id="patch_6">
    <path d="M 38.482813 22.318125 
L 484.882813 22.318125 
" style="fill:none;stroke:#000000;stroke-linecap:square;stroke-linejoin:miter;stroke-width:0.8;"/>
   </g>
   <g id="text_15">
    <!-- titleFontSize -->
    <g transform="translate(224.576563 16.318125)scale(0.12 -0.12)">
     <defs>
      <path d="M 1172 4494 
L 1172 3500 
L 2356 3500 
L 2356 3053 
L 1172 3053 
L 1172 1153 
Q 1172 725 1289 603 
Q 1406 481 1766 481 
L 2356 481 
L 2356 0 
L 1766 0 
Q 1100 0 847 248 
Q 594 497 594 1153 
L 594 3053 
L 172 3053 
L 172 3500 
L 594 3500 
L 594 4494 
L 1172 4494 
z
" id="DejaVuSans-74" transform="scale(0.015625)"/>
      <path d="M 603 3500 
L 1178 3500 
L 1178 0 
L 603 0 
L 603 3500 
z
M 603 4863 
L 1178 4863 
L 1178 4134 
L 603 4134 
L 603 4863 
z
" id="DejaVuSans-69" transform="scale(0.015625)"/>
      <path d="M 603 4863 
L 1178 4863 
L 1178 0 
L 603 0 
L 603 4863 
z
" id="DejaVuSans-6c" transform="scale(0.015625)"/>
      <path d="M 3597 1894 
L 3597 1613 
L 953 1613 
Q 991 1019 1311 708 
Q 1631 397 2203 397 
Q 2534 397 2845 478 
Q 3156 559 3463 722 
L 3463 178 
Q 3153 47 2828 -22 
Q 2503 -91 2169 -91 
Q 1331 -91 842 396 
Q 353 884 353 1716 
Q 353 2575 817 3079 
Q 1281 3584 2069 3584 
Q 2775 3584 3186 3129 
Q 3597 2675 3597 1894 
z
M 3022 2063 
Q 3016 2534 2758 2815 
Q 2500 3097 2075 3097 
Q 1594 3097 1305 2825 
Q 1016 2553 972 2059 
L 3022 2063 
z
" id="DejaVuSans-65" transform="scale(0.015625)"/>
      <path d="M 628 4666 
L 3309 4666 
L 3309 4134 
L 1259 4134 
L 1259 2759 
L 3109 2759 
L 3109 2228 
L 1259 2228 
L 1259 0 
L 628 0 
L 628 4666 
z
" id="DejaVuSans-46" transform="scale(0.015625)"/>
      <path d="M 1959 3097 
Q 1497 3097 1228 2736 
Q 959 2375 959 1747 
Q 959 1119 1226 758 
Q 1494 397 1959 397 
Q 2419 397 2687 759 
Q 2956 1122 2956 1747 
Q 2956 2369 2687 2733 
Q 2419 3097 1959 3097 
z
M 1959 3584 
Q 2709 3584 3137 3096 
Q 3566 2609 3566 1747 
Q 3566 888 3137 398 
Q 2709 -91 1959 -91 
Q 1206 -91 779 398 
Q 353 888 353 1747 
Q 353 2609 779 3096 
Q 1206 3584 1959 3584 
z
" id="DejaVuSans-6f" transform="scale(0.015625)"/>
      <path d="M 3513 2113 
L 3513 0 
L 2938 0 
L 2938 2094 
Q 2938 2591 2744 2837 
Q 2550 3084 2163 3084 
Q 1697 3084 1428 2787 
Q 1159 2491 1159 1978 
L 1159 0 
L 581 0 
L 581 3500 
L 1159 3500 
L 1159 2956 
Q 1366 3272 1645 3428 
Q 1925 3584 2291 3584 
Q 2894 3584 3203 3211 
Q 3513 2838 3513 2113 
z
" id="DejaVuSans-6e" transform="scale(0.015625)"/>
      <path d="M 3425 4513 
L 3425 3897 
Q 3066 4069 2747 4153 
Q 2428 4238 2131 4238 
Q 1616 4238 1336 4038 
Q 1056 3838 1056 3469 
Q 1056 3159 1242 3001 
Q 1428 2844 1947 2747 
L 2328 2669 
Q 3034 2534 3370 2195 
Q 3706 1856 3706 1288 
Q 3706 609 3251 259 
Q 2797 -91 1919 -91 
Q 1588 -91 1214 -16 
Q 841 59 441 206 
L 441 856 
Q 825 641 1194 531 
Q 1563 422 1919 422 
Q 2459 422 2753 634 
Q 3047 847 3047 1241 
Q 3047 1584 2836 1778 
Q 2625 1972 2144 2069 
L 1759 2144 
Q 1053 2284 737 2584 
Q 422 2884 422 3419 
Q 422 4038 858 4394 
Q 1294 4750 2059 4750 
Q 2388 4750 2728 4690 
Q 3069 4631 3425 4513 
z
" id="DejaVuSans-53" transform="scale(0.015625)"/>
      <path d="M 353 3500 
L 3084 3500 
L 3084 2975 
L 922 459 
L 3084 459 
L 3084 0 
L 275 0 
L 275 525 
L 2438 3041 
L 353 3041 
L 353 3500 
z
" id="DejaVuSans-7a" transform="scale(0.015625)"/>
     </defs>
     <use xlink:href="#DejaVuSans-74"/>
     <use x="39.208984" xlink:href="#DejaVuSans-69"/>
     <use x="66.992188" xlink:href="#DejaVuSans-74"/>
     <use x="106.201172" xlink:href="#DejaVuSans-6c"/>
     <use x="133.984375" xlink:href="#DejaVuSans-65"/>
     <use x="195.507812" xlink:href="#DejaVuSans-46"/>
     <use x="249.402344" xlink:href="#DejaVuSans-6f"/>
     <use x="310.583984" xlink:href="#DejaVuSans-6e"/>
     <use x="373.962891" xlink:href="#DejaVuSans-74"/>
     <use x="413.171875" xlink:href="#DejaVuSans-53"/>
     <use x="476.648438" xlink:href="#DejaVuSans-69"/>
     <use x="504.431641" xlink:href="#DejaVuSans-7a"/>
     <use x="556.921875" xlink:href="#DejaVuSans-65"/>
    </g>
   </g>
  </g>
 </g>
 <defs>
  <clipPath id="p4adbf3ae0c">
   <rect height="326.16" width="446.4" x="38.482813" y="22.318125"/>
  </clipPath>
 </defs>
</svg>
